<?xml version="1.0" encoding="UTF-8"?>
<svg id="Layer_1" xmlns="http://www.w3.org/2000/svg" version="1.1" xmlns:xlink="http://www.w3.org/1999/xlink" viewBox="0 0 1282.45 1024.61">
  <!-- Generator: Adobe Illustrator 29.3.1, SVG Export Plug-In . SVG Version: 2.1.0 Build 151)  -->
  <defs>
    <style>
      .st0 {
        fill: #fbf7d5;
      }

      .st1 {
        fill: #fff;
      }

      .st2 {
        fill: url(#linear-gradient1);
      }

      .st3 {
        fill: #fa6e16;
      }

      .st4 {
        fill: #f89525;
      }

      .st5 {
        fill: #5accf2;
      }

      .st6 {
        fill: #fbfbe6;
      }

      .st7 {
        fill: #d7a57f;
      }

      .st8 {
        fill: #ed662b;
      }

      .st9 {
        fill: #f8972a;
      }

      .st10 {
        fill: #fa9929;
      }

      .st11 {
        fill: #04010f;
      }

      .st12 {
        fill: #469694;
      }

      .st13 {
        fill: #fb9828;
      }

      .st14 {
        fill: #d8391e;
      }

      .st15 {
        fill: #e75718;
      }

      .st16 {
        fill: #f55b16;
      }

      .st17 {
        fill: #8bc854;
      }

      .st18 {
        fill: url(#linear-gradient);
      }
    </style>
    <linearGradient id="linear-gradient" x1="623.43" y1="507.85" x2="624.55" y2="507.85" gradientUnits="userSpaceOnUse">
      <stop offset="0" stop-color="#c82506"/>
      <stop offset=".05" stop-color="#c82506"/>
      <stop offset=".41" stop-color="#c82506"/>
      <stop offset=".44" stop-color="#c82d0b"/>
      <stop offset=".55" stop-color="#c94319"/>
      <stop offset=".68" stop-color="#ca5323"/>
      <stop offset=".81" stop-color="#ca5d29"/>
      <stop offset="1" stop-color="#cb602b"/>
    </linearGradient>
    <linearGradient id="linear-gradient1" x1="623.43" y1="557.88" x2="624.55" y2="557.88" xlink:href="#linear-gradient"/>
  </defs>
  <g>
    <path class="st5" d="M1104.24,494.56l-58.92,11.34-15.81,19.17-13.65-19.42-37.89,1.22v-1.23l-89.92,1.62v-30.9h-40.61l-40.18,1.85v-1.78l-91.55,1.65v-.03l-40.1-1.85h-8.93s-8.44,39.4-8.44,39.4l-8.43-39.24h-8.82l-40.18,1.85v-.16l-40.1-1.85h-8.93s-8.44,39.4-8.44,39.4l-8.43-39.24h-8.82l-59.42-22.24-6.66,150.72,60.74-4.57,1.84-21.23,4.72,21.58,32.07-.22,4.71-21.53,1.84,21.23h34.84v.16h34.88l1.84-21.23,4.72,21.58,32.07-.22,4.71-21.53,1.84,21.23h34.84v.15l91.6.18v-.17h34.83l4.08-45.86h29.31v-27.62h-26.97l1.42-16.08,36.44.32v89.24l81.16.16h0s5.63.01,5.63.01h4.82s0,0,0,0h32.6l16.49-21.66,17.93,21.66,52.39,11.79-49.38-60.81,56.23-56.86ZM772.16,567.7l-12.55.74v-60.21l14.93-.49-2.39,59.96ZM942.99,567.69l-12.67.75v-31l14.78-.48-2.11,30.73ZM977.97,587.77v-68.24l28.2,34.05-28.2,34.19Z"/>
    <g>
      <path d="M557.22,479.64l35.42,1.63v112.45h-25.46l-4.24-48.96-10.77,49.29-24.15.16-10.77-49.29-4.24,48.96-51.32,4.57,6.66-141.11,54.62,22.46h4.73l12.4,57.78,12.4-57.94h4.73Z"/>
      <path d="M672.11,479.64l35.42,1.63v112.45h-25.46l-4.24-48.96-10.77,49.29-24.15.16-10.77-49.29-4.24,48.96h-25.46v-112.45l35.42-1.63h4.73l12.4,57.78,12.4-57.94h4.73Z"/>
      <path d="M799.08,594.05l-81.77-.16v-112.45l81.77-1.47v114.08ZM751.42,572.18l22.2-1.31,2.77-69.69-24.97.82v70.18Z"/>
      <path d="M879.86,504.61l-37.7-.33-2.28,25.95h27.42v17.79h-28.89l-4.08,45.86h-25.46v-112.45l35.42-1.63h35.58v24.81Z"/>
      <path d="M969.78,594.05l-81.77-.16v-83.23l81.77-1.47v84.87ZM922.13,572.18l22.2-1.31,2.77-40.48-24.97.82v40.96Z"/>
      <path d="M1091.04,498l-52.39,51.82,46.04,56.02-40.66-11.79-20.4-24.64-18.77,24.64h-30.19l34.6-41.94-34.6-41.78,35.42-1.14,15.83,22.52,18.44-22.36,46.68-11.34Z"/>
    </g>
    <g>
      <polygon class="st3" points="592.63 541.54 592.63 481.27 557.22 479.64 552.48 479.64 540.08 537.58 527.68 479.8 522.94 479.8 468.33 457.34 465.79 551.29 592.63 541.54"/>
      <polygon class="st3" points="707.53 541.54 707.53 481.27 672.11 479.64 667.38 479.64 654.97 537.58 642.57 479.8 637.84 479.8 602.42 481.43 602.42 541.54 707.53 541.54"/>
      <polygon class="st3" points="751.42 541.54 751.42 502 776.39 501.18 774.79 541.54 799.08 541.54 799.08 479.97 717.31 481.43 717.31 541.54 751.42 541.54"/>
      <polygon class="st3" points="867.29 541.54 867.29 530.23 839.88 530.23 842.16 504.28 879.86 504.61 879.86 479.8 844.28 479.8 808.87 481.43 808.87 541.54 867.29 541.54"/>
      <polygon class="st3" points="922.13 541.54 922.13 531.21 947.1 530.4 946.33 541.54 969.78 541.54 969.78 509.18 888.02 510.65 888.02 541.54 922.13 541.54"/>
      <polygon class="st3" points="1044.96 541.54 1091.04 498 1044.36 509.34 1025.92 531.7 1010.09 509.18 974.68 510.32 1000.52 541.54 1044.96 541.54"/>
    </g>
  </g>
  <g>
    <path d="M227.48,505.15c-.52.34-1.02.71-1.5,1.12,0,0,.53-.42,1.5-1.12Z"/>
    <path d="M454.19,516.92c-13.61-5.42-27.54-33.54-30.88-40.65-.49-1.04-.75-1.63-.75-1.63,0,0,13.5-8.86,27-23.62,7.33-8.02,9.07-31.59,9.11-51.45v-.32c.03-16.57-1.1-30.49-1.1-30.49-1.69,5.9-24.89,14.77-60.32,26.15-32.66,10.5-31.99,23.87-31.68,25.89,0,0,0,0,0,0,.03.17.05.25.05.25l-.08.06-.5.35c-18.71-16.31-49.07-27.07-50.01-27.4,1.34.67,2.81,1.98,4.38,3.79,6.44,7.46,14.51,23.57,21.93,40.33l-.73.51-.99.7c-5.14-.54-9,.21-9,.21,0,0-2.11-11.81-7.59-24.04-5.48-12.23-20.67-19.83-35.85-25.73-15.19-5.9-43.02-24.89-43.02-24.89l-3.8,25.73c-1.16,8.25-1.62,15.79-1.56,22.67.41,45.85,24.34,62.12,24.34,62.12-.44.32-.89.68-1.36,1.08-6.29,5.36-14.87,17.04-14.87,17.04-4.44,2.07-8.52,4.4-11.87,6.49-3.35,2.09-5.98,3.94-7.51,5.06,2.08-1.35,4.47-2.08,6.79-2.46,5.33-.86,10.28.2,10.28.2,0,0-1.25.53-3.13,1.73-2.21,1.4-5.29,3.71-8.26,7.13-5.48,6.33-32.48,7.17-32.48,7.17.3.74.64,1.43,1.03,2.1,9.01,15.44,41.57,13.5,41.57,13.5l-2.65,2.22-10.43,8.75s.62.25,1.72.7c4.62,1.88,17.83,7.19,30.75,11.95,13.87,5.11,24.58,26.64,27.22,32.35l-1.24-.43-1.28-.44c-8.88-6.35-34.59-24.43-51.13-32.94.56.44,1.15.99,1.74,1.67l-5.67-3.59s-14.34-2.53-24.89-15.19c0,0-2.95,10.78-2.8,25.69h0c.25,23.75,8.36,57.95,48.78,75.72,38.95,17.13,56.85,14.95,64.96,10.32,7.4,12.13,16.66,20.52,24.04,12.7,2.23-2.37,3.28-5.24,3.47-8.39.23-3.78-.78-7.96-2.47-12.16-.36-.89-.74-1.77-1.16-2.66,4.18,1.83,6.49,2.96,6.49,2.96,1.55-2.01,3.41-3.45,5.48-4.5-.39.94-.75,1.85-1.07,2.74-1.92,5.28-2.63,9.6-2.46,13.04h0c.39,7.51,5.02,10.87,10.7,11.08,8.9.33,17.8-11.96,20.66-32.32,11.29-3.86,17.72-18.87,17.72-18.87,3.33-6.21,3.98-18.13,4.04-25.56.02-1.81,0-3.36-.03-4.48-.03-1.27-.07-2.01-.07-2.01,6.16-13.55,43.2-29.48,52.27-33.22,1.28-.52,2-.81,2-.81l-10.36-6.9-3.14-2.09c24.33.22,30.41-13.55,31.89-19.24.38-1.48.45-2.41.45-2.41,0,0-7.03,4.92-22.64-1.3ZM352.05,598.68c-17.06,4.12-28.54-5.72-30.34-22.37-.74-6.79-1.56-16.97,2.44-22.66l.35,2.57c.44.86,5.1-1.49,6.03-1.71,5.27-1.24,21.76-.44,27.77.02.93.07,2.18,1.12,2.49-.11l.47.46c7.64,12.67,8.71,39.47-9.2,43.8ZM322.92,496.53c-4.92-11.52-21.96-6.84-19.62,5.82l-11.93-4.17c2.23-25.94,30.54-33.11,31.55-1.65ZM383.37,479.08c6.04,4.94,8.23,13.36,9.06,20.82l-12.88,2.76c2.98-11.87-12.63-17.61-18.09-6.43,1.34-10.73,9-27.7,21.91-17.14ZM354.57,516.73c-3.11-.03-6.2.49-9.23.33-3.94-.21-14.26-3.14-4.18-4.21,4.55-.48,13.43.12,17.53,2.2,6.64,3.39-2.77,1.69-4.12,1.67Z"/>
    <path d="M232.31,554.78c1.24.56,2.55,1.21,3.93,1.92-2.16-1.72-3.93-1.92-3.93-1.92Z"/>
  </g>
  <g>
    <path class="st8" d="M227.48,507.29c-.52.34-1.02.71-1.5,1.12,0,0,.53-.42,1.5-1.12Z"/>
    <path class="st8" d="M476.82,520.36s-.15.1-.45.26c-1.78.94-8.85,3.75-22.18-1.56-5.6-2.23-11.26-8.31-16.22-15.19-.29-.4-.58-.81-.86-1.22,0,0,0,0,0,0-8.4-12.02-14.55-25.87-14.55-25.87,0,0,.26-.17.75-.51,3.02-2.08,14.63-10.41,26.24-23.11,7.6-8.31,9.18-33.31,9.11-53.59v-.32c-.06-15.61-1.1-28.34-1.1-28.34-1.69,5.9-24.89,14.77-60.32,26.15-26.72,8.59-31.13,19.1-31.68,23.75,0,0,0,0,0,0-.02.11-.02.21-.03.31-.11,1.32.08,2.09.08,2.09l-.58.41c-14.64-12.76-36.41-22.12-45.64-25.75-2.57-1.01-4.17-1.58-4.38-1.65,6.66,3.35,16.55,22.26,25.58,42.49.24.55.48,1.09.73,1.63l-1.72,1.21c-5.14-.54-9,.21-9,.21,0,0-2.11-11.81-7.59-24.04-5.48-12.23-20.67-19.83-35.85-25.73-15.19-5.9-43.02-24.89-43.02-24.89l-3.8,25.73c-1.04,7.4-1.52,14.23-1.56,20.52-.29,40.72,17.81,58.86,22.98,63.2.86.72,1.36,1.06,1.36,1.06-6.33,4.64-16.23,18.13-16.23,18.13-4.44,2.07-8.52,4.4-11.87,6.49-.25.15-.49.31-.73.46-3.01,1.9-5.37,3.57-6.79,4.6,4.48-2.89,10.38-2.97,13.93-2.67,1.9.16,3.13.42,3.13.42,0,0-5.9,2.53-11.39,8.86-4.84,5.59-26.45,6.9-31.45,7.13-.66.03-1.03.04-1.03.04,5.98,14.77,31.61,15.76,39.96,15.68,1.66-.02,2.65-.07,2.65-.07l-11.35,9.52-1.72,1.44s16.45,6.75,32.48,12.66c12.26,4.52,22.06,21.87,25.98,29.78.51,1.04.93,1.91,1.24,2.57l-2.52-.87c-8.88-6.35-34.59-24.43-51.13-32.94.56.44,1.15.99,1.74,1.67l-5.67-3.59s-14.34-2.53-24.89-15.19c0,0-2.67,9.76-2.8,23.55h0c-.22,23.79,7.13,59.55,48.78,77.86,38.95,17.13,56.85,14.95,64.96,10.32,7.4,12.13,16.66,20.52,24.04,12.7,2.73-2.89,3.69-6.54,3.47-10.53-.21-4.01-1.62-8.37-3.63-12.67.4.18.79.35,1.16.51,3.45,1.53,5.33,2.45,5.33,2.45,1.28-1.66,2.77-2.93,4.41-3.91.35-.21.71-.41,1.07-.59-2.26,5.44-3.34,9.96-3.52,13.63h0c-.44,9.02,4.5,12.99,10.7,13.22,8.9.33,17.8-11.96,20.66-32.32,11.29-3.86,17.72-18.87,17.72-18.87,3.68-6.86,4.09-20.66,4.04-27.7-.02-2.65-.1-4.34-.1-4.34.02-.05.04-.1.07-.14,7.25-15.44,54.21-33.88,54.21-33.88l-2-1.34-11.5-7.66c1.08,0,2.13,0,3.14-.05,27.63-1.19,29.2-21.6,29.2-21.6ZM383.37,479.08c6.04,4.94,8.23,13.36,9.06,20.82l-12.88,2.76c2.98-11.87-12.63-17.61-18.09-6.43,1.34-10.73,9-27.7,21.91-17.14ZM352.05,598.68c-17.06,4.12-28.54-5.72-30.34-22.37-.74-6.79-1.56-16.97,2.44-22.66l.35,2.57c.44.86,5.1-1.49,6.03-1.71,5.27-1.24,21.76-.44,27.77.02.93.07,2.18,1.12,2.49-.11l.47.46c7.64,12.67,8.71,39.47-9.2,43.8ZM354.57,516.73c-3.11-.03-6.2.49-9.23.33-3.94-.21-14.26-3.14-4.18-4.21,4.55-.48,13.43.12,17.53,2.2,6.64,3.39-2.77,1.69-4.12,1.67ZM303.3,502.35l-11.93-4.17c2.23-25.94,30.54-33.11,31.55-1.65-4.92-11.52-21.96-6.84-19.62,5.82Z"/>
    <path class="st8" d="M232.31,556.92c1.24.56,2.55,1.21,3.93,1.92-2.16-1.72-3.93-1.92-3.93-1.92Z"/>
  </g>
  <path class="st18" d="M227.48,507.29c-.52.34-1.02.71-1.5,1.12,0,0,.53-.42,1.5-1.12Z"/>
  <path class="st16" d="M227.48,507.29c-.52.34-1.02.71-1.5,1.12,0,0,.53-.42,1.5-1.12Z"/>
  <path class="st5" d="M336.12,677.8c-7.18,0-14.25-4.65-21.05-13.83-3.53.93-7.48,1.4-11.77,1.4-13.75,0-31.7-4.83-53.35-14.35-20.44-8.99-35.36-22.76-44.34-40.93-6.51-13.17-9.73-28.27-9.57-44.86.13-14.78,2.98-25.31,3.1-25.75.42-1.53,1.24-2.88,2.34-3.93-4.03-3.07-6.98-6.82-8.76-11.24-1.05-2.6-.77-5.56.76-7.91,1.53-2.35,4.11-3.81,6.92-3.9l.92-.04c7.67-.35,13.79-1.18,18.14-2.07-1.38-3.55-.26-7.67,2.96-10.02,1.57-1.14,4.1-2.93,7.26-4.93l.79-.5c3.65-2.27,7.27-4.29,10.79-6.02,1.83-2.4,5.5-7.09,9.37-11.3-3.25-3.71-7.06-8.94-10.51-15.97-6.73-13.71-10.08-29.97-9.95-48.35.04-6.89.6-14.18,1.64-21.65l3.8-25.79c.43-2.95,2.32-5.42,5.05-6.62,1.1-.48,2.26-.72,3.45-.72,1.73,0,3.4.52,4.84,1.49.27.19,27.22,18.5,41.3,23.98,5.66,2.2,11.67,4.73,17.37,7.83,1.54-2.58,4.32-4.19,7.38-4.19.95,0,1.89.16,2.79.47.23.08,1.92.68,4.72,1.77,7.06,2.78,23.9,9.89,38.42,19.81,1.37-2.04,3.08-4.01,5.12-5.89,6.34-5.85,15.95-10.86,28.55-14.92,19.39-6.23,32.78-10.96,42.12-14.88,9.08-3.81,12.18-6.02,13.04-6.74,1.4-2.97,4.43-4.95,7.78-4.95.27,0,.54.01.81.04,4.17.41,7.42,3.71,7.75,7.86.04.54,1.06,13.28,1.13,29v.36c.11,31.92-3.51,50.79-11.37,59.39-8.46,9.26-16.85,16.27-22.47,20.57,2.52,4.95,6.31,11.87,10.73,18.2l.81,1.14c6.38,8.87,10.51,11.46,12.41,12.21,4.22,1.68,7.99,2.54,11.18,2.54,2.24,0,3.47-.45,3.77-.57,1.35-.84,2.91-1.28,4.51-1.28,1.5,0,2.97.39,4.27,1.14,2.86,1.64,4.54,4.83,4.29,8.12-.1,1.26-.84,7.9-5.87,14.78-2.63,3.59-7.02,7.94-14.04,11,.86,1.53,1.25,3.32,1.05,5.14-.34,3.19-2.41,5.9-5.4,7.08-.47.19-11.73,4.65-23.61,10.8-17.38,8.99-23.24,14.88-25.14,17.42.01.61.02,1.31.03,2.1.07,9.91-.72,23.4-4.89,31.49-1.28,2.86-7.14,14.87-17.73,21-1.71,8.88-4.62,16.63-8.46,22.52-5.26,8.08-12.22,12.53-19.59,12.53-.21,0-.42,0-.63,0-4.93-.18-9.21-1.81-12.51-4.74-3.53,3.71-7.84,5.66-12.48,5.66ZM329.81,564.02c-.34,4.12.17,8.84.45,11.36.63,5.84,3.34,15.64,14.35,15.64,1.69,0,3.52-.24,5.43-.7,2.94-.71,4.93-2.54,6.27-5.74,2.68-6.41,1.71-15.38-.67-21.62-3.64-.23-9.54-.52-14.93-.52-4.95,0-7.1.25-7.87.37-.19.08-.4.17-.53.22-.88.36-1.7.7-2.5.98Z"/>
  <path d="M336.12,672.88c-6.19,0-12.62-4.95-19.11-14.71-3.85,1.51-8.45,2.27-13.71,2.27-13.07,0-30.35-4.69-51.37-13.93-19.35-8.51-33.45-21.5-41.91-38.61-6.16-12.48-9.21-26.82-9.07-42.64.13-14.11,2.81-24.08,2.93-24.5.36-1.33,1.42-2.33,2.77-2.62.26-.06.52-.08.78-.08,1.09,0,2.12.48,2.83,1.32,9.45,11.34,22.59,13.9,22.72,13.92.46.08.91.26,1.31.51l2.14,1.35c.52.03,1.04.16,1.51.4,12.48,6.42,29.76,17.96,42.02,26.47-4.62-7.33-11.19-15.59-18.54-18.29-15.83-5.83-32.44-12.64-32.6-12.71-1.18-.49-2.04-1.57-2.24-2.84-.2-1.27.29-2.56,1.27-3.38l5.48-4.59c-12.8-.81-30.65-4.42-36.05-17.78-.45-1.11-.33-2.38.33-3.39.65-1.01,1.76-1.63,2.96-1.67,0,0,0,0,.01,0,.05,0,.39-.01.97-.04,14.34-.66,26.46-3.13,28.84-5.86.77-.89,1.58-1.74,2.42-2.56-1.16.33-2.3.8-3.31,1.46-.6.39-1.29.59-2,.59-1.21,0-2.35-.6-3.03-1.59-1.14-1.65-.76-3.87.86-5.06,1.51-1.1,3.95-2.82,6.99-4.74l.16-.1c.2-.12.4-.25.6-.38,3.86-2.4,7.7-4.52,11.4-6.29,1.76-2.34,7.69-10.09,12.98-15.17-3.34-3.2-8.43-9.03-12.92-18.16-6.39-13.02-9.57-28.54-9.45-46.15.04-6.68.58-13.74,1.6-21l3.8-25.76c.19-1.26.99-2.32,2.16-2.83.47-.21.96-.31,1.48-.31.74,0,1.46.22,2.07.64.27.19,27.68,18.82,42.28,24.5,11.44,4.45,23.54,10.02,31.49,18.34-3.49-5.2-5.56-6.87-6.62-7.4-1.72-.87-2.49-2.94-1.74-4.72.58-1.37,1.91-2.25,3.39-2.25.41,0,.81.07,1.2.2.19.07,1.83.64,4.52,1.7,7.86,3.09,27.12,11.27,41.97,22.55.96-2.72,2.89-6.08,6.69-9.59,5.81-5.36,14.8-10.02,26.72-13.85,19.54-6.28,33.05-11.05,42.52-15.02,13.79-5.78,15.3-8.45,15.4-8.67.46-1.56,1.9-2.64,3.53-2.64.12,0,.24,0,.36.02,1.77.18,3.16,1.59,3.31,3.36.01.13,1.05,12.98,1.11,28.63v.33c.1,30.2-3.2,48.55-10.08,56.08-10.14,11.09-20.18,18.86-25.07,22.39,2.29,4.75,7.06,14.12,12.93,22.51.02.03.04.06.06.09.22.31.44.62.66.93l.12.17c5.43,7.55,10.34,12.23,14.59,13.93,4.8,1.92,9.18,2.89,13,2.89,3.62,0,5.59-.89,6.11-1.16.06-.03.1-.05.12-.07.6-.41,1.31-.62,2.04-.62.64,0,1.28.17,1.83.49,1.22.7,1.94,2.07,1.83,3.48-.05.63-.6,6.32-4.94,12.25-3.24,4.42-9.3,9.8-20.27,11.9l2.74,1.83,2,1.34c1.14.76,1.76,2.09,1.62,3.45-.15,1.37-1.03,2.53-2.31,3.03-.12.05-11.71,4.62-24.07,11.01-14.98,7.75-24.83,14.97-27.84,20.4.03.77.06,1.99.07,3.51.06,7.72-.44,21.79-4.4,29.33-.8,1.81-6.88,14.88-17.72,19.9-1.52,9.24-4.33,17.21-8.16,23.08-4.33,6.64-9.82,10.3-15.47,10.3-.16,0-.32,0-.48,0-4.26-.16-7.85-1.71-10.39-4.48-1.05-1.14-1.88-2.44-2.51-3.9-.75,1.89-1.84,3.6-3.27,5.12-2.62,2.78-5.64,4.19-8.96,4.19ZM325.43,560.07c-1.2,5.36-.44,12.34-.06,15.84,1.36,12.54,8.55,20.03,19.23,20.03,2.08,0,4.3-.28,6.59-.83,4.46-1.08,7.71-3.98,9.65-8.63,3.63-8.69,1.84-20.6-1.76-27.9-.45-.1-.83-.24-1.13-.34-.05-.02-.1-.04-.15-.06-3.16-.23-10.51-.65-17.1-.65-5.86,0-8.3.34-9.25.55-.21.08-.78.31-1.03.42-2.03.84-3.61,1.46-4.99,1.57ZM370.37,486.54c4.08,0,8,1.9,10.49,5.09,1.45,1.86,2.35,4.05,2.63,6.42l4.81-1.03c-1.22-7.07-3.66-12.14-7.27-15.09-2.03-1.66-3.87-2.5-5.48-2.5-3.13,0-5.79,3.36-7.62,7.33.79-.15,1.6-.22,2.44-.22ZM299.69,497.19c.44-2.2,1.39-4.21,2.8-5.91,2.61-3.13,6.67-5,10.87-5,1.47,0,2.91.22,4.26.65-1.71-4.84-4.64-7.55-8.32-7.55-5.57,0-12.09,6.07-13.9,16.31l4.28,1.5ZM329.15,423.09c2.22,6.06,3.62,11.44,4.36,14.66.77-.05,1.55-.07,2.34-.07.08,0,.16,0,.24,0-2.56-5.66-4.87-10.48-6.94-14.59Z"/>
  <path class="st9" d="M476.82,520.36s-.15.1-.45.26c-1.78.94-8.85,3.75-22.18-1.56-5.6-2.23-11.26-8.31-16.22-15.19-.29-.4-.58-.81-.86-1.22,0,0,0,0,0,0-8.4-12.02-14.55-25.87-14.55-25.87,0,0,.26-.17.75-.51,3.02-2.08,14.63-10.41,26.24-23.11,7.6-8.31,9.18-33.31,9.11-53.59v-.32c-.06-15.61-1.1-28.34-1.1-28.34-1.69,5.9-24.89,14.77-60.32,26.15-26.72,8.59-31.13,19.1-31.68,23.75,0,0,0,0,0,0-.02.11-.02.21-.03.31-.11,1.32.08,2.09.08,2.09l-.58.41c-14.64-12.76-36.41-22.12-45.64-25.75-2.57-1.01-4.17-1.58-4.38-1.65,6.66,3.35,16.55,22.26,25.58,42.49.24.55.48,1.09.73,1.63l-1.72,1.21c-5.14-.54-9,.21-9,.21,0,0-2.11-11.81-7.59-24.04-5.48-12.23-20.67-19.83-35.85-25.73-15.19-5.9-43.02-24.89-43.02-24.89l-3.8,25.73c-1.04,7.4-1.52,14.23-1.56,20.52-.29,40.72,17.81,58.86,22.98,63.2.86.72,1.36,1.06,1.36,1.06-6.33,4.64-16.23,18.13-16.23,18.13-4.44,2.07-8.52,4.4-11.87,6.49-.25.15-.49.31-.73.46-3.01,1.9-5.37,3.57-6.79,4.6,4.48-2.89,10.38-2.97,13.93-2.67,1.9.16,3.13.42,3.13.42,0,0-5.9,2.53-11.39,8.86-4.84,5.59-26.45,6.9-31.45,7.13-.66.03-1.03.04-1.03.04,5.98,14.77,31.61,15.76,39.96,15.68,1.66-.02,2.65-.07,2.65-.07l-11.35,9.52-1.72,1.44s16.45,6.75,32.48,12.66c12.26,4.52,22.06,21.87,25.98,29.78.51,1.04.93,1.91,1.24,2.57l-2.52-.87c-8.88-6.35-34.59-24.43-51.13-32.94.56.44,1.15.99,1.74,1.67l-5.67-3.59s-14.34-2.53-24.89-15.19c0,0-2.67,9.76-2.8,23.55h0c-.22,23.79,7.13,59.55,48.78,77.86,38.95,17.13,56.85,14.95,64.96,10.32,7.4,12.13,16.66,20.52,24.04,12.7,2.73-2.89,3.69-6.54,3.47-10.53-.21-4.01-1.62-8.37-3.63-12.67.4.18.79.35,1.16.51,3.45,1.53,5.33,2.45,5.33,2.45,1.28-1.66,2.77-2.93,4.41-3.91.35-.21.71-.41,1.07-.59-2.26,5.44-3.34,9.96-3.52,13.63h0c-.44,9.02,4.5,12.99,10.7,13.22,8.9.33,17.8-11.96,20.66-32.32,11.29-3.86,17.72-18.87,17.72-18.87,3.68-6.86,4.09-20.66,4.04-27.7-.02-2.65-.1-4.34-.1-4.34.02-.05.04-.1.07-.14,7.25-15.44,54.21-33.88,54.21-33.88l-2-1.34-11.5-7.66c1.08,0,2.13,0,3.14-.05,27.63-1.19,29.2-21.6,29.2-21.6ZM383.37,479.08c6.04,4.94,8.23,13.36,9.06,20.82l-12.88,2.76c2.98-11.87-12.63-17.61-18.09-6.43,1.34-10.73,9-27.7,21.91-17.14ZM352.05,598.68c-17.06,4.12-28.54-5.72-30.34-22.37-.74-6.79-1.56-16.97,2.44-22.66l.35,2.57c.44.86,5.1-1.49,6.03-1.71,5.27-1.24,21.76-.44,27.77.02.93.07,2.18,1.12,2.49-.11l.47.46c7.64,12.67,8.71,39.47-9.2,43.8ZM354.57,516.73c-3.11-.03-6.2.49-9.23.33-3.94-.21-14.26-3.14-4.18-4.21,4.55-.48,13.43.12,17.53,2.2,6.64,3.39-2.77,1.69-4.12,1.67ZM303.3,502.35l-11.93-4.17c2.23-25.94,30.54-33.11,31.55-1.65-4.92-11.52-21.96-6.84-19.62,5.82Z"/>
  <path class="st0" d="M334.41,662.47c-3.92,0-9.48-5.28-14.87-14.12-.63-1.04-1.74-1.62-2.88-1.62-.57,0-1.14.14-1.67.44-3.32,1.89-7.83,2.85-13.4,2.85-12.08,0-28.41-4.49-48.54-13.33-17.8-7.82-30.72-19.69-38.42-35.28-5.67-11.48-8.47-24.75-8.34-39.45,0-.01,0-.02,0-.03.06-6.77.77-12.57,1.44-16.61,9.03,8.17,18.89,10.81,21.59,11.41l5.15,3.26c.56.35,1.18.52,1.8.52.16,0,.32-.01.47-.03,16.54,9.15,39.81,25.56,46.96,30.67.26.19.56.34.86.45l2.52.87c.36.12.73.18,1.1.18.94,0,1.85-.39,2.5-1.11.91-1,1.12-2.45.56-3.68-.4-.87-.83-1.76-1.28-2.66-4.81-9.68-14.81-26.65-27.84-31.44-10.39-3.83-21.06-8.05-27.18-10.51l8.78-7.36c1.11-.93,1.5-2.48.97-3.83-.51-1.29-1.76-2.13-3.13-2.13-.07,0-.13,0-.2,0,0,0-.93.05-2.48.07-.25,0-.52,0-.81,0-6.23,0-25.06-.74-33.17-9.27,10.45-.76,24.54-2.76,29.08-8.01,4.85-5.6,10.12-7.95,10.18-7.97,1.34-.59,2.16-1.97,2.01-3.43-.15-1.46-1.21-2.66-2.64-2.96-.11-.02-.89-.19-2.12-.34,1.75-.94,3.48-1.81,5.17-2.6.51-.24.96-.6,1.29-1.06.1-.13,9.67-13.12,15.51-17.4.88-.65,1.4-1.69,1.38-2.78-.02-1.1-.57-2.11-1.48-2.73h0s-.4-.28-1.08-.85c-2.18-1.83-7.76-7.14-12.69-16.9-6.14-12.17-9.2-26.87-9.08-43.7.04-6.37.55-13.12,1.53-20.08l3.01-20.43c8.56,5.64,27.41,17.66,39.24,22.26,13.11,5.1,28.83,12.43,34,23.97,5.24,11.68,7.33,23.14,7.35,23.26.16.89.67,1.68,1.41,2.19.57.39,1.23.59,1.91.59.22,0,.43-.02.65-.06,0,0,1.86-.35,4.6-.35,1.14,0,2.28.06,3.4.18.12.01.24.02.35.02.69,0,1.37-.21,1.94-.62l1.72-1.21c1.31-.93,1.79-2.65,1.14-4.12l-.73-1.63c-7.14-15.99-12.54-26.13-16.69-32.63,10.41,4.63,25.16,12.15,35.83,21.45.63.55,1.42.83,2.22.83.68,0,1.36-.2,1.94-.62l.58-.41c1.19-.84,1.76-2.15,1.34-3.54-.02-.12-.05-.48,0-1.02,0-.04,0-.08.01-.13,0-.03,0-.07.01-.1.35-2.83,3.51-12.6,29.36-20.91,32.92-10.58,48.86-17.02,56.39-21.85.28,5.16.59,12.62.62,20.84v.31c.12,36.69-5.1,47.9-8.23,51.32-11.28,12.34-22.5,20.43-25.67,22.61-.43.3-.66.45-.68.46-1.39.9-1.91,2.68-1.24,4.2.26.58,6.37,14.25,14.83,26.38,0,.01.02.02.02.04h0c.26.38.52.75.79,1.12l.12.16c6.23,8.66,12.19,14.16,17.71,16.36,5.64,2.25,10.89,3.39,15.61,3.39,1.22,0,2.33-.08,3.32-.2-2.47,5.23-8.72,12.54-24.39,13.22-.8.03-1.62.05-2.45.05-.17,0-.54,0-.55,0-1.48,0-2.79.96-3.22,2.38-.44,1.43.11,2.97,1.35,3.8l8.25,5.5c-4.65,2-11.55,5.1-18.81,8.85-17.42,9.01-27.95,17.17-31.3,24.24-.03.06-.06.13-.09.19-.23.49-.34,1.06-.32,1.61,0,.02.08,1.66.1,4.19.09,12.11-1.24,21.62-3.64,26.09-.05.09-.09.18-.13.27-.06.13-6,13.69-15.71,17.01-1.2.41-2.07,1.46-2.25,2.72-1.28,9.14-3.85,16.86-7.41,22.33-2.98,4.58-6.38,7.1-9.57,7.1-.07,0-.15,0-.22,0-1.62-.06-3.89-.49-5.45-2.2-1.49-1.63-2.17-4.14-2-7.48,0-.02,0-.03,0-.05.18-3.49,1.28-7.69,3.27-12.47.54-1.3.21-2.81-.82-3.77-.64-.59-1.46-.9-2.29-.9-.52,0-1.04.12-1.53.37-.47.24-.89.47-1.29.71-1.27.76-2.44,1.66-3.49,2.68-.83-.38-1.88-.86-3.14-1.42-.24-.11-.5-.22-.77-.34l-.39-.17c-.44-.19-.9-.29-1.36-.29-.89,0-1.76.35-2.41,1.01-.98,1-1.24,2.51-.65,3.79,2.03,4.35,3.15,8.2,3.32,11.43.19,3.39-.65,6.02-2.55,8.04-1.25,1.33-2.51,1.97-3.83,1.97ZM322.44,546.91c-1.08,0-2.12.52-2.76,1.43-4.39,6.24-4,16.12-3.03,24.96,1.76,16.23,11.82,26.31,26.24,26.31,2.64,0,5.41-.35,8.25-1.03,6.67-1.61,11.69-6.03,14.5-12.76,4.93-11.79,2.03-27.38-3.2-36.06-.15-.24-.32-.47-.53-.67l-.47-.46c-.64-.63-1.49-.96-2.36-.96-.31,0-.61.04-.92.13-.14.04-.27.09-.41.14-.28-.07-.58-.13-.91-.15-3.14-.24-10.9-.69-17.86-.69-5.21,0-8.79.25-10.94.75-.51.12-1.05.34-2.04.75-.14.06-.32.13-.53.22-.43-.9-1.24-1.58-2.24-1.82-.27-.06-.53-.1-.8-.1ZM352.81,516.74c.18.01.73.07,1.14.12,1.23.14,2.75.32,4,.32,3.27,0,4.34-1.59,4.66-2.93.74-3.09-2.4-4.7-4.09-5.56-3.96-2.02-10.89-2.73-15.63-2.73-1.42,0-2.69.06-3.79.18-2.22.24-7.41.79-7.3,4.85.09,3.29,3.98,4.46,5.64,4.95,2.01.6,4.38,1.04,6.03,1.13.45.02.9.03,1.39.03,1.39,0,2.76-.1,4.08-.19,1.28-.09,2.49-.18,3.69-.18h.19ZM368.66,490.22c1.93,0,3.77.89,4.93,2.38,1.21,1.55,1.55,3.58.97,5.87-.28,1.13.04,2.33.85,3.16.64.66,1.52,1.03,2.43,1.03.23,0,.47-.02.71-.07l12.88-2.76c1.69-.36,2.84-1.95,2.65-3.67-1.2-10.85-4.56-18.39-10.27-23.06-3.32-2.72-6.67-4.09-9.95-4.09-10.65,0-16.26,14.01-17.44,23.43-.2,1.64.8,3.18,2.38,3.65.32.09.64.14.96.14,1.26,0,2.45-.71,3.03-1.89,1.75-3.58,4.43-4.11,5.88-4.11ZM307.59,468.96c-5.01,0-10.14,2.62-14.06,7.18-4.1,4.77-6.6,11.12-7.22,18.38-.13,1.53.79,2.96,2.25,3.47l11.93,4.17c.36.13.74.19,1.11.19.79,0,1.57-.28,2.19-.81.91-.78,1.34-1.99,1.12-3.17-.43-2.35.01-4.41,1.29-5.95,1.28-1.54,3.32-2.46,5.45-2.46,1.36,0,4.72.44,6.46,4.53.54,1.26,1.77,2.05,3.1,2.05.24,0,.49-.03.73-.08,1.58-.35,2.69-1.78,2.64-3.4-.24-7.53-1.95-13.51-5.07-17.75-3-4.09-7.24-6.34-11.93-6.34Z"/>
  <path class="st3" d="M439.18,539.98s.37,0,.53,0c.8,0,1.6-.02,2.38-.05,15.24-.66,21.31-7.76,23.71-12.85-.97.12-2.05.2-3.23.2-4.59,0-9.69-1.11-15.17-3.29-5.36-2.14-11.16-7.49-17.21-15.9l-.11-.16c-.26-.36-.52-.72-.77-1.09,0-.01-.02-.02-.02-.04-8.23-11.79-14.17-25.08-14.42-25.64-.65-1.47-.14-3.2,1.21-4.08.02-.01.25-.16.66-.45,3.08-2.12,13.98-9.98,24.95-21.98,3.04-3.32,8.12-14.22,8-49.89v-.3c-.03-7.99-.33-15.24-.61-20.26-7.32,4.69-22.81,10.95-54.82,21.24-25.14,8.08-28.21,17.58-28.55,20.33,0,.03,0,.07-.01.1,0,.04,0,.09-.01.12-.04.52-.01.87,0,.99.41,1.35-.14,2.62-1.3,3.44l-.57.4c-.57.4-1.23.6-1.89.6-.77,0-1.54-.27-2.15-.81-10.38-9.04-24.72-16.35-34.84-20.85,4.04,6.32,9.29,16.18,16.23,31.72l.71,1.59c.63,1.43.17,3.11-1.11,4.01l-1.67,1.18c-.56.39-1.22.6-1.89.6-.11,0-.23,0-.34-.02-1.08-.11-2.19-.17-3.3-.17-2.67,0-4.47.34-4.48.34-.21.04-.42.06-.63.06-.66,0-1.3-.2-1.85-.57-.72-.5-1.22-1.26-1.38-2.13-.02-.11-2.06-11.26-7.15-22.61-5.03-11.22-20.3-18.34-33.05-23.3-11.51-4.47-29.83-16.16-38.15-21.64l-2.93,19.86c-.95,6.76-1.45,13.33-1.49,19.52-.11,16.36,2.86,30.65,8.83,42.48,4.79,9.49,10.22,14.65,12.34,16.43.66.55,1.05.83,1.05.83h0c.88.6,1.42,1.59,1.44,2.65.02,1.07-.48,2.08-1.34,2.71-5.67,4.16-14.98,16.79-15.08,16.92-.33.44-.76.8-1.26,1.03-1.64.77-3.32,1.61-5.02,2.53,1.2.15,1.95.3,2.06.33,1.39.3,2.43,1.46,2.57,2.88.14,1.42-.65,2.77-1.95,3.34-.05.02-5.17,2.3-9.89,7.75-4.42,5.1-18.11,7.04-28.27,7.78,7.89,8.29,26.19,9.01,32.25,9.01.28,0,.54,0,.78,0,1.5-.01,2.4-.07,2.41-.07.07,0,.13,0,.19,0,1.34,0,2.55.81,3.05,2.07.52,1.31.14,2.81-.94,3.72l-8.53,7.16c5.95,2.39,16.32,6.5,26.42,10.22,12.66,4.66,22.39,21.15,27.06,30.56.43.87.85,1.74,1.24,2.58.55,1.19.34,2.6-.54,3.57-.63.7-1.52,1.08-2.43,1.08-.36,0-.72-.06-1.07-.18l-2.45-.84c-.3-.1-.58-.25-.84-.43-6.95-4.97-29.57-20.92-45.65-29.82-.15.02-.31.03-.46.03-.6,0-1.21-.17-1.75-.51l-5.01-3.17c-.88-.2-2.56-.62-4.73-1.4,0,.05-.01.1-.02.15-.1.52-.19,1.04-.28,1.56,8.47,1.35,15.16,7.52,23,10.61,3,1.18,2.65,5.57-.77,5.72-5.27.24-10.61-.33-15.61-2.07-2.07-.72-4.05-1.61-5.97-2.62,0,.01,0,.02,0,.03-.02.44-.02.88.03,1.33,0-.03.09.53.19.94.13.55.3,1.09.5,1.62.69,1.91,1.89,3.88,3.1,5.62,2.28,3.28,5.23,6.57,8.54,8.28.38.19.67.43.89.69,2.27,1.53.68,5.89-2.57,5.19-4.41-.95-8.41-3.12-12.14-5.65.63,3.76,1.51,7.48,2.52,11.18.68.04,1.33.3,1.77.84,6.36,7.91,17.65,9.9,26.84,12.75,3.12.97,2.56,5.72-.77,5.72-5.67,0-11.35-.15-16.94-1.16-1.78-.32-3.54-.75-5.26-1.28,1.49,3.26,3.32,6.29,5.7,8.72.91.92,1.01,2.02.65,2.95,4.37,3.02,9.18,5.69,14.42,8,19.56,8.6,35.44,12.96,47.18,12.96,5.41,0,9.8-.93,13.03-2.78.51-.29,1.07-.43,1.62-.43,1.11,0,2.19.56,2.8,1.57,5.24,8.59,10.65,13.73,14.46,13.73,1.29,0,2.51-.63,3.73-1.92,1.86-1.97,2.67-4.52,2.48-7.82-.17-3.14-1.25-6.88-3.23-11.11-.58-1.24-.33-2.71.63-3.68.63-.64,1.48-.98,2.34-.98.45,0,.9.09,1.33.28l.38.17c.26.12.52.23.75.33,1.22.54,2.24,1,3.05,1.38,1.02-.99,2.16-1.86,3.4-2.6.39-.23.79-.46,1.25-.69.47-.24.98-.36,1.48-.36.81,0,1.61.3,2.23.87,1.01.93,1.33,2.39.8,3.66-1.93,4.65-3,8.72-3.18,12.12,0,.02,0,.03,0,.05-.16,3.25.5,5.69,1.95,7.27,1.52,1.66,3.72,2.08,5.3,2.14.07,0,.15,0,.22,0,3.1,0,6.4-2.45,9.3-6.9,3.46-5.32,5.95-12.82,7.2-21.71.17-1.22,1.02-2.25,2.19-2.65,9.44-3.22,15.22-16.41,15.28-16.53.04-.09.08-.17.12-.26,2.33-4.35,3.62-13.59,3.54-25.36-.01-2.46-.09-4.06-.09-4.07-.03-.53.09-1.08.31-1.56.03-.06.06-.12.09-.18,3.26-6.88,13.5-14.81,30.43-23.57,7.06-3.65,13.76-6.66,18.29-8.61l-8.02-5.34c-1.21-.8-1.74-2.31-1.32-3.69.42-1.38,1.7-2.32,3.13-2.32ZM338.39,511.65c1.07-.11,2.31-.17,3.69-.17,4.61,0,11.35.7,15.19,2.66,1.64.84,4.7,2.4,3.97,5.4-.31,1.3-1.35,2.85-4.53,2.85-1.21,0-2.7-.17-3.89-.31-.39-.05-.93-.11-1.11-.12h-.18c-1.16,0-2.34.08-3.58.17-1.29.09-2.62.18-3.97.18-.47,0-.91-.01-1.35-.03-1.6-.08-3.9-.51-5.86-1.1-1.62-.48-5.4-1.61-5.48-4.81-.11-3.95,4.94-4.49,7.1-4.72ZM311.7,495.92c-2.07,0-4.05.9-5.3,2.39-1.24,1.49-1.68,3.49-1.26,5.78.21,1.15-.2,2.32-1.09,3.08-.6.52-1.36.79-2.13.79-.36,0-.73-.06-1.08-.18l-11.59-4.05c-1.41-.49-2.31-1.88-2.18-3.38.61-7.06,3.03-13.24,7.02-17.87,3.82-4.43,8.8-6.98,13.67-6.98,4.56,0,8.68,2.19,11.59,6.16,3.03,4.13,4.69,9.94,4.93,17.26.05,1.58-1.03,2.97-2.57,3.31-.24.05-.48.08-.71.08-1.29,0-2.49-.76-3.01-1.99-1.7-3.97-4.96-4.4-6.28-4.4ZM364.19,589.12c-2.74,6.55-7.61,10.84-14.1,12.41-2.75.67-5.45,1-8.02,1-14.03,0-23.8-9.8-25.51-25.58-.94-8.59-1.32-18.2,2.95-24.27.62-.89,1.63-1.39,2.68-1.39.26,0,.52.03.78.09.97.24,1.76.9,2.18,1.77.2-.08.37-.15.51-.21.96-.4,1.48-.61,1.98-.73,2.09-.49,5.57-.73,10.64-.73,6.76,0,14.31.44,17.36.67.32.02.62.08.88.15.13-.05.26-.1.39-.14.29-.08.59-.12.89-.12.85,0,1.67.33,2.3.94l.45.44c.2.19.37.41.51.65,5.08,8.44,7.9,23.59,3.12,35.05ZM389.26,505.52l-12.52,2.68c-.23.05-.46.07-.69.07-.88,0-1.73-.35-2.36-1-.79-.81-1.1-1.98-.82-3.08.56-2.22.23-4.2-.95-5.7-1.13-1.45-2.92-2.31-4.79-2.31-1.41,0-4.02.52-5.72,4-.56,1.15-1.72,1.84-2.95,1.84-.31,0-.63-.04-.94-.14-1.54-.46-2.52-1.96-2.32-3.55,1.15-9.15,6.61-22.78,16.96-22.78,3.19,0,6.44,1.34,9.67,3.98,5.55,4.54,8.82,11.87,9.99,22.41.19,1.67-.93,3.22-2.57,3.57Z"/>
  <path class="st2" d="M232.31,556.92c1.24.56,2.55,1.21,3.93,1.92-2.16-1.72-3.93-1.92-3.93-1.92Z"/>
  <path class="st16" d="M232.31,556.92c1.24.56,2.55,1.21,3.93,1.92-2.16-1.72-3.93-1.92-3.93-1.92Z"/>
  <path class="st12" d="M227.48,507.29c-.52.34-1.02.71-1.5,1.12,0,0,.53-.42,1.5-1.12Z"/>
  <path class="st0" d="M280.39,459.42c-.07,0-.14,0-.21-.01-7.36-.84-13.36-4.27-17.82-10.17-5.98-7.92-9.14-20.07-9.38-36.13-.18-11.83,1.34-21.24,1.4-21.63.14-.86.86-1.5,1.73-1.54.03,0,.06,0,.08,0,.84,0,1.57.57,1.78,1.38,5.41,21.09,46.68,54.83,47.09,55.17.5.41.75,1.05.66,1.7-.09.64-.52,1.19-1.12,1.43l-23.53,9.67c-.22.09-.46.14-.7.14Z"/>
  <path class="st4" d="M312.59,452.38s-34.51-28.05-39.13-46.03c0,0-8.3,50.73,19.83,53.96l19.3-7.93Z"/>
  <path class="st0" d="M402.39,459.34c.07.01.14.02.21.03,7.4.48,13.9-1.82,19.34-6.83,7.3-6.73,12.56-18.13,15.66-33.89,2.28-11.61,2.46-21.14,2.47-21.53.01-.87-.58-1.63-1.43-1.82-.03,0-.05-.01-.08-.02-.82-.15-1.65.28-2,1.04-9.08,19.8-55.69,45.65-56.16,45.91-.57.31-.93.9-.95,1.55-.02.65.3,1.26.85,1.61l21.44,13.7c.2.13.43.22.66.26Z"/>
  <path class="st4" d="M372.81,443.95s38.95-21.46,46.69-38.34c0,0-.86,51.4-29.11,49.57l-17.58-11.23Z"/>
  <path d="M261.79,479.26c4.04-9.22,11.49-16.97,19.56-22.84,11.01-7.91,24.35-12.57,37.89-13.26,3.33-.19,6.73-.08,10.04.25-.82.2-1.64.36-2.45.53-2,.37-4.06.88-6.05,1.3-.72.19-2.82.7-3.58.89-8.21,2.1-16.25,4.97-23.83,8.76-11.94,6.06-22.73,14.28-31.58,24.38h0Z"/>
  <path d="M419.05,472.57c-17.48-16.89-40.06-28.98-64.65-29.7-1.39-.03-2.77-.04-4.16.03,0,0-.54.03-.54.03l-2.19-1.99c.02-.2,0-.45.01-.66-.33-8.59-5.05-16.33-10.65-22.63,7.56,5.26,13.97,14.01,14.5,23.44,0,0-2.19-1.99-2.19-1.99.27-.04.47-.07.69-.1,3.19-.41,6.42-.47,9.63-.33,23.74,1.04,46.46,14.14,59.55,33.9h0Z"/>
  <path class="st13" d="M284.79,494.7c.83-2.03,1.07-3.48,1.55-5.86,2.75-13.45,10-37.42,25.08-24.48,3.91,3.43,6.74,7.5,9.23,11.7,3.58,6.28,4.48,16.89,2.88,24.88-.71,3.84-1.92,7.12-3.31,10.76-.79,1.87-1.66,4.68-3.13,5.79-1.17.76-2.45-.31-3.46-1.03-5.19-4-16.68-11.76-25.84-13.59-5.08-1.23-4.88-3.73-3-8.13l.02-.04Z"/>
  <path class="st13" d="M396.08,496.47c-.83-2.03-1.07-3.48-1.55-5.86-2.75-13.45-10-37.42-25.08-24.48-3.91,3.43-6.74,7.5-9.23,11.7-3.58,6.28-4.48,16.89-2.88,24.88.71,3.84,1.92,7.12,3.31,10.76.79,1.87,1.66,4.68,3.13,5.79,1.17.76,2.45-.31,3.46-1.03,5.19-4,16.68-11.76,25.84-13.59,5.08-1.23,4.88-3.73,3-8.13l-.02-.04Z"/>
  <path class="st12" d="M232.98,555.74c1.24.56,2.55,1.21,3.93,1.92-2.16-1.72-3.93-1.92-3.93-1.92Z"/>
  <path d="M320.21,508.51c-2.19-2.03-13.84-5.52-15.02-6.88-1.54-1.77.13-6.93,2.16-9.31.16-.25.37-.46.61-.62.15-.13.31-.24.46-.33v.09c.36-.16.78-.24,1.19-.25.45-.36,1.04-.59,1.78-.59,2.97,0,3.58,3.64,1.86,5.16.59.71.79,1.71.61,2.62.77.57,1.29,1.54,1.29,2.44,0,1.48-1.02,2.46-2.32,2.8,2.12-.05,2.26-2.51,3.87-2.5l2.29,1.57.32-1.23.6.61,1.23-2.14-.91,3.84c1.17.71.34,1.26.3,2.59l1.23-2.45.28.73-1.82,3.86ZM323.59,495.34c-4.92-11.52-21.96-6.84-19.62,5.82l-11.93-4.17c2.23-25.94,30.54-33.11,31.55-1.65ZM352.72,597.49c-17.06,4.12-28.54-5.72-30.34-22.37-.74-6.79-1.56-16.97,2.44-22.66l.35,2.57c.44.86,5.1-1.49,6.03-1.71,5.27-1.24,21.76-.44,27.77.02.93.07,2.18,1.12,2.49-.11l.47.46c7.64,12.67,8.71,39.47-9.2,43.8ZM407.49,514.99c-17.3,2.48-24.24,22.25-42.25,25.79-5.67,1.11-18.31,2.54-20.65-4.39-3.57,7.58-17.45,5.02-23.84,2.69-22.78-8.32-23.94-30.07-53.07-26.53-5.89.71-12.83,2.91-18.28,5.16,9.79-12.46,25.8-19,41.69-17.46-.75-.26-2.54-2.62-2.76-2.75,11.45,3.4,23.73,6.47,33.42,13.78l-.9-1.36c7.05-11.09,5.65-42.98-13.67-38.16-10.64,2.65-16.37,14.98-16.39,25.13l-4.9-.61c.27.17,1.2.65,1.84.95-.75-.1,1.16,2.19,1.84,2.41-15.87-2.01-33.23,6.14-41.69,19.6,13.62-6.38,33.96-8.56,45.99,1.99,20.62,18.09,15.44,63.88,37.62,75.75,13.6,7.28,32.52,4.69,38.73-10.8,6.08-15.16,12.04-51.17,22.83-61.74,9.94-9.74,21.14-9.71,34.19-7.35-6.23-2.24-13.13-3.04-19.73-2.09Z"/>
  <path class="st15" d="M353.61,596.98c-7.7,2.69-16.59,1.77-22.72-4.36-9.5-9.5-10.73-22.99-8.25-35.16.24-.93.53-1.82.89-2.66.36-.84.78-1.62,1.28-2.33l.34,2.57c8.49-2.58,17.38-2.28,26.15-2.14,1.04.05,2.04.1,2.97.15,1.87.1,3.49.21,4.69.3.93.07,2.18,1.12,2.49-.11l.47.46c.48.79.93,1.64,1.35,2.53.42.89.82,1.83,1.17,2.81,1.09,1.7,1.09,3.85.79,5.69,0,1.53-.31,3.07,0,4.29,1.53,9.5.61,21.15-8.41,26.64-1.01.56-2.08,1-3.21,1.32Z"/>
  <path class="st14" d="M347.99,573.71c.97-2.97,2.62-5.54,4.95-7.71,3.14-3.14,7.38-5.4,11.81-6.41-.09-.19-.19-.38-.31-.56-.35-.97-.75-1.91-1.17-2.81-.42-.89-.87-1.74-1.35-2.53l-.47-.46c-.31,1.23-1.56.18-2.49.11-1.2-.09-2.82-.2-4.69-.3-.93-.05-1.93-.1-2.97-.15-8.77-.14-17.66-.44-26.15,2.14l-.34-2.57c-.5.71-.92,1.49-1.28,2.33s-.65,1.73-.89,2.66c-.3,1.48-.55,2.97-.73,4.48.55.07,1.11.17,1.66.29,3.19.14,6.16,1.09,8.91,2.84,2.79,1.51,5.03,3.56,6.72,6.17,1.91,2.09,3.26,4.51,4.05,7.25.9,1.05,1.81,2.1,2.68,3.17.08-2.82.77-5.47,2.07-7.95Z"/>
  <path class="st10" d="M359.85,574.23c-.26.7-.56,1.4-.92,2.07-.9,2.75-2.43,5.14-4.59,7.15-4.03,4.03-10.01,6.51-15.71,6.51-4.1,0-7.89-1.17-11.26-3.18,4.84,6.89,13.04,10.03,23.51,7.5,11.54-2.79,14.58-15.63,12.99-27.15-.95,2.55-2.35,4.95-4.02,7.1Z"/>
  <path class="st1" d="M323.59,495.34c-4.92-11.52-21.96-6.84-19.62,5.82l-11.93-4.17c2.23-25.94,30.54-33.11,31.55-1.65Z"/>
  <path class="st1" d="M355.24,515.55c-3.11-.03-6.2.49-9.23.33-3.94-.21-14.26-3.14-4.18-4.21,4.55-.48,13.43.12,17.53,2.2,6.64,3.39-2.77,1.69-4.12,1.67Z"/>
  <path class="st1" d="M380.21,501.47c2.98-11.87-12.63-17.61-18.09-6.43,1.34-10.73,9-27.7,21.91-17.14,6.04,4.94,8.23,13.36,9.06,20.82l-12.88,2.76Z"/>
  <path d="M418.84,508.2c-7.04-4.22-14.5-5.84-22.69-5.66,7.52-1.17,16.83.52,22.69,5.66Z"/>
  <path d="M435.62,499.72c.2.12,3.83,2.92,3.01,2.97l-17.02-7.96c4.29,1.36,10.16,2.75,14.01,4.99Z"/>
  <path class="st17" d="M316.84,490.07s-9.8-2.33-11.56,6.01c-1.76,8.33,2.53,6.95,2.53,6.95l13.03,6.88,2.74-12.33-6.74-7.5Z"/>
  <path class="st17" d="M368.69,490.07s-7.28,4.08-6.56,7.5c.72,3.42,2.34,11.35,2.34,11.35l14.84-5.79s3.58-8.61-3.52-10.84l-7.1-2.22Z"/>
  <ellipse class="st11" cx="316.84" cy="497.58" rx="6.74" ry="7.5"/>
  <ellipse class="st11" cx="371" cy="497.58" rx="6.74" ry="7.5"/>
  <ellipse class="st6" cx="377.74" cy="497.58" rx="1.43" ry="2.21"/>
  <ellipse class="st6" cx="310.1" cy="497.58" rx="1.43" ry="2.21"/>
  <path class="st0" d="M305.8,502.87l-19.68-6.47,3.94,3.23s-14.59.89-27,6.05c-6.19,2.25-14.72,13.14-14.72,13.14,0,0,30.81-16.45,55.03,8.16,5.26,5.35,11.63,9.5,18.71,11.98,9.75,3.41,21.32,5.46,21.96-3.74,1.12-16.04-38.24-32.35-38.24-32.35Z"/>
  <path class="st0" d="M426.23,505.98c-12.4-5.16-27-6.05-27-6.05l.89-.73c-.67-.1-1.27-.44-1.73-.93l-23.06,5.69s-31.22,15.52-30.1,31.56c.65,9.2,13.99,7.66,23.74,4.25,7.08-2.48,11.67-7.13,16.94-12.48,24.22-24.62,55.03-8.16,55.03-8.16,0,0-8.53-10.89-14.72-13.14Z"/>
  <path class="st7" d="M324.63,532.44c-5.67-3.75-11.39-7.36-17.38-10.57-2.91-1.56-5.86-3.03-8.85-4.41-2.99-1.38-6.04-2.84-9.24-3.66-3.22-.83-6.51-1.12-9.82-1.16-3.04-.03-6.25-.07-9.22.66-.75.18-1.49.41-2.23.65,10.86-1.26,25.1.52,37.58,13.21,5.26,5.35,11.63,9.5,18.71,11.98,6,2.1,12.68,2.34,17.09,1.1-5.55-3.04-11.35-4.3-16.64-7.8Z"/>
  <path class="st7" d="M364.87,532.95c5.67-3.75,11.39-7.36,17.38-10.57,2.91-1.56,5.86-3.03,8.85-4.41,2.99-1.38,6.04-2.84,9.24-3.66,3.22-.83,6.51-1.12,9.82-1.16,3.04-.03,6.25-.07,9.22.66.75.18,1.49.41,2.23.65-10.86-1.26-25.1.52-37.58,13.21-5.26,5.35-11.63,9.5-18.71,11.98-6,2.1-12.68,2.34-17.09,1.1,5.55-3.04,11.35-4.3,16.64-7.8Z"/>
  <path class="st7" d="M250.79,518.5c-.36-.04-.7-.12-1.02-.25-.9,1.06-1.44,1.75-1.44,1.75,0,0,1.16-.62,3.2-1.44-.25-.01-.5-.03-.75-.06Z"/>
  <path class="st7" d="M440.95,519.12s-.79-1.01-2.07-2.48c-.55.27-1.23.33-2.01.07-2.55-.87-5.19-1.39-7.86-1.71,7.21,1.59,11.94,4.12,11.94,4.12Z"/>
  <path d="M394.92,498.71c-.26-.27-.45-6.18-.7-7.42-3.9-19.45-25.55-30.43-31.84-5.33-1.78,7.1-1.36,12.54.07,19.61.15.74,1.44,3.53,1.44,4.09,0,.13-1.06,2.17-1.17,2.23-.24.12-3.66-2.23-4.6-2.6-8.88-3.53-22.83-3.99-31.05,1.43-5.78,3.81-7.26,9.72-1.11,14.15,3.45,2.48,4.3.2,7.96,1.55,3.12,1.15,3.28,3.05,5.53,4.89,3.08,2.52,4.89,2.32,8.35.43,3.12-1.71,4.43-5.2,8.18-5.46l-.61-.91c1.09.06,2.06,1.05,3.22.91,4.92-.55,7.7-5.88,6.49-10.47-.32-1.21-1.97-3.37-2.01-3.84-.1-1.23,1.53-1.17,1.38-3.04-.37-4.75-3.27-9.13-.75-14.29l1.17-1.44-.91,3.06c.38.01.87-2.18,1.53-1.22.13.18,0,3.75,0,4.44,0,2.14,4.86,4.39,6.82,3.74,1.96-.65.43-1.15,1.13-2.53.76-1.49,2.6-.43,3.17-2.39.28-.97-.67-6.95,2.36-3.72,1.1,1.17.4,6.52-.71,7.7-1.25,1.33-8.93,4.08-11.24,5.46-.36.22-1.93.73-1.37,1.39,9.4-4.13,18.63-9.11,29.13-9.8l6.57.45c-.86-1.44-6.2-.83-6.43-1.07ZM355.24,515.55c-3.11-.03-6.2.49-9.23.33-3.94-.21-14.26-3.14-4.18-4.21,4.55-.48,13.43.12,17.53,2.2,6.64,3.39-2.77,1.69-4.12,1.67ZM380.21,501.47c2.98-11.87-12.63-17.61-18.09-6.43,1.34-10.73,9-27.7,21.91-17.14,6.04,4.94,8.23,13.36,9.06,20.82l-12.88,2.76Z"/>
  <path class="st0" d="M300.14,588.65s6.09,19.4,20.01,21.93c0,0-5.55-27.56-10-47.92-5.56-25.41-22.05-68.08-62.97-35.6,0,0,20.25-5.97,24.04,6.93,0,0-13.08-7.77-36.28,10.79,0,0,28.5,3.71,45.37,20.58,7.39,7.39,10.5,22.24,18.32,29.19h0s5.06-7.92-3.37-17.88"/>
  <path class="st0" d="M270.42,540.94c2.58.77,5.19,1.46,7.63,2.57,4.63,2.11,8.85,5.81,12.52,9.27,3.81,3.59,7.16,7.72,9.91,12.18,4.41,7.15,7.31,15.31,11.92,22.35.6-1.6,1-3.3,1.35-5.12.35-1.78.59-3.59.75-5.4-1.26-6.01-2.59-12.27-3.83-17.94-2.47-11.28-7.21-26.14-15.53-35.59-3.34-2.29-7.07-3.96-11.16-4.75-3.81-.73-7.68-1.31-11.56-1.42-.11,0-.22,0-.32,0,1.1.44,2.17.94,3.2,1.48,4.55,2.4,9.72,6.39,11.53,11.41,1.28,3.54-.61,6.79-3.87,8.31-3.61,1.68-7.72,2.05-11.62,2.54-.34.04-.64.08-.93.12Z"/>
  <path class="st0" d="M387.15,589.31s-6.09,19.4-20.01,21.93c0,0,5.55-27.56,10-47.92,5.56-25.41,22.05-68.08,62.97-35.6,0,0-20.25-5.97-24.04,6.93,0,0,13.08-7.77,36.28,10.79,0,0-28.5,3.71-45.37,20.58-7.39,7.39-10.5,22.24-18.32,29.19h0s-5.06-7.92,3.37-17.88"/>
  <path class="st0" d="M416.88,541.61c-2.58.77-5.19,1.46-7.63,2.57-4.63,2.11-8.85,5.81-12.52,9.27-3.81,3.59-7.16,7.72-9.91,12.18-4.41,7.15-7.31,15.31-11.92,22.35-.6-1.6-1-3.3-1.35-5.12-.35-1.78-.59-3.59-.75-5.4,1.26-6.01,2.59-12.27,3.83-17.94,2.47-11.28,7.21-26.14,15.53-35.59,3.34-2.29,7.07-3.96,11.16-4.75,3.81-.73,7.68-1.31,11.56-1.42.11,0,.22,0,.32,0-1.1.44-2.17.94-3.2,1.48-4.55,2.4-9.72,6.39-11.53,11.41-1.28,3.54.61,6.79,3.87,8.31,3.61,1.68,7.72,2.05,11.62,2.54.34.04.64.08.93.12Z"/>
  <path d="M373.16,588.16c-1.95,17.52-15.75,30.05-33.8,27.49-28.22-4.01-27.34-35.45-31.5-57.2,4.86,18.01,3.97,43.11,23.19,52.64,20.01,9.93,37.56-3.01,42.12-22.93Z"/>
  <path class="st4" d="M297.52,454.7c31.04-15.79,78.15-22.06,118.11,21.29l12.9,18.82s-14.89-9.24-23.59-.3c0,0-14.86-39.43-41.55-23.79-11.61,6.81-4.84,37.97-4.84,37.97,0,0-17.17-6.72-25.04-1.27-7.87,5.45,7.78-25.4-7.24-35.04-18.26-11.73-34.04-6.77-40.82,25.21,0,0-8.57,0-28.65,9.33h0c6.32-19.63,22.34-42.88,40.72-52.23Z"/>
</svg>