<?xml version="1.0" encoding="UTF-8"?>
<svg id="Layer_1" xmlns="http://www.w3.org/2000/svg" version="1.1" xmlns:xlink="http://www.w3.org/1999/xlink" viewBox="0 0 337 337">
  <!-- Generator: Adobe Illustrator 29.3.1, SVG Export Plug-In . SVG Version: 2.1.0 Build 151)  -->
  <defs>
    <style>
      .st0 {
        fill: #fbf7d5;
      }

      .st1 {
        fill: #fff;
      }

      .st2 {
        fill: url(#linear-gradient1);
      }

      .st3 {
        fill: #fa6e16;
      }

      .st4 {
        fill: #f89525;
      }

      .st5 {
        fill: #5accf2;
      }

      .st6 {
        fill: #fbfbe6;
      }

      .st7 {
        fill: #d7a57f;
      }

      .st8 {
        fill: #ed662b;
      }

      .st9 {
        fill: #f8972a;
      }

      .st10 {
        fill: #fa9929;
      }

      .st11 {
        fill: #04010f;
      }

      .st12 {
        fill: #469694;
      }

      .st13 {
        fill: #fb9828;
      }

      .st14 {
        fill: #d8391e;
      }

      .st15 {
        fill: #e75718;
      }

      .st16 {
        fill: #f55b16;
      }

      .st17 {
        fill: #8bc854;
      }

      .st18 {
        fill: url(#linear-gradient);
      }
    </style>
    <linearGradient id="linear-gradient" x1="469.37" y1="157.61" x2="470.56" y2="157.61" gradientUnits="userSpaceOnUse">
      <stop offset="0" stop-color="#c82506"/>
      <stop offset=".05" stop-color="#c82506"/>
      <stop offset=".41" stop-color="#c82506"/>
      <stop offset=".44" stop-color="#c82d0b"/>
      <stop offset=".55" stop-color="#c94319"/>
      <stop offset=".68" stop-color="#ca5323"/>
      <stop offset=".81" stop-color="#ca5d29"/>
      <stop offset="1" stop-color="#cb602b"/>
    </linearGradient>
    <linearGradient id="linear-gradient1" x1="469.37" y1="210.49" x2="470.56" y2="210.49" xlink:href="#linear-gradient"/>
  </defs>
  <g>
    <path d="M50.9,154.75c-.55.35-1.08.75-1.58,1.18,0,0,.56-.44,1.58-1.18Z"/>
    <path d="M290.5,167.19c-14.38-5.73-29.11-35.45-32.64-42.96-.52-1.1-.8-1.73-.8-1.73,0,0,14.27-9.36,28.53-24.97,7.75-8.47,9.58-33.38,9.63-54.37v-.34c.03-17.52-1.16-32.22-1.16-32.22-1.78,6.24-26.3,15.61-63.75,27.64-34.52,11.1-33.81,25.23-33.49,27.36,0,0,0,0,0,0,.03.17.05.27.05.27l-.09.06-.53.37c-19.78-17.24-51.86-28.61-52.86-28.96,1.42.71,2.97,2.09,4.62,4.01,6.8,7.88,15.34,24.91,23.18,42.62l-.77.54-1.05.74c-5.43-.57-9.51.23-9.51.23,0,0-2.23-12.49-8.03-25.41-5.79-12.93-21.84-20.96-37.89-27.2-16.05-6.24-45.47-26.3-45.47-26.3l-4.01,27.19c-1.22,8.72-1.71,16.69-1.65,23.96.44,48.46,25.72,65.65,25.72,65.65-.46.34-.94.72-1.44,1.14-6.65,5.66-15.72,18.01-15.72,18.01-4.69,2.19-9,4.65-12.55,6.86-3.54,2.21-6.32,4.16-7.94,5.35,2.2-1.42,4.72-2.2,7.17-2.6,5.63-.91,10.86.21,10.86.21,0,0-1.32.56-3.31,1.82-2.34,1.48-5.6,3.92-8.73,7.54-5.8,6.69-34.33,7.58-34.33,7.58.31.78.68,1.52,1.09,2.22,9.53,16.32,43.94,14.27,43.94,14.27l-2.8,2.35-11.02,9.24s.65.27,1.82.74c4.89,1.98,18.84,7.6,32.5,12.63,14.66,5.4,25.98,28.16,28.76,34.19l-1.31-.45-1.36-.47c-9.39-6.71-36.56-25.82-54.04-34.81.59.47,1.21,1.05,1.84,1.76l-5.99-3.79s-15.16-2.68-26.31-16.05c0,0-3.12,11.4-2.96,27.15h0c.26,25.11,8.84,61.25,51.55,80.02,41.17,18.1,60.08,15.8,68.66,10.91,7.82,12.82,17.61,21.69,25.4,13.42,2.36-2.5,3.47-5.53,3.66-8.87.24-3.99-.83-8.41-2.61-12.85-.38-.94-.78-1.87-1.22-2.81,4.41,1.93,6.86,3.13,6.86,3.13,1.64-2.13,3.6-3.65,5.79-4.76-.41.99-.79,1.96-1.13,2.89-2.03,5.58-2.78,10.15-2.6,13.78h0c.41,7.94,5.31,11.49,11.31,11.71,9.41.35,18.81-12.64,21.84-34.16,11.93-4.08,18.73-19.94,18.73-19.94,3.52-6.57,4.21-19.17,4.27-27.01.02-1.92,0-3.55-.04-4.74-.03-1.34-.07-2.12-.07-2.12,6.51-14.33,45.66-31.16,55.25-35.11,1.35-.55,2.12-.86,2.12-.86l-10.95-7.3-3.32-2.21c25.72.24,32.14-14.33,33.7-20.34.41-1.56.48-2.55.48-2.55,0,0-7.43,5.2-23.92-1.37ZM182.56,253.61c-18.03,4.36-30.16-6.05-32.07-23.64-.78-7.17-1.65-17.93,2.58-23.95l.37,2.72c.47.91,5.39-1.57,6.38-1.8,5.57-1.32,23-.47,29.35.02.98.07,2.31,1.19,2.63-.11l.49.48c8.07,13.4,9.21,41.72-9.72,46.3ZM151.77,145.64c-5.2-12.18-23.21-7.23-20.74,6.15l-12.61-4.41c2.36-27.42,32.27-34.99,33.34-1.74ZM215.66,127.2c6.38,5.22,8.7,14.12,9.57,22l-13.61,2.91c3.15-12.54-13.35-18.61-19.11-6.8,1.42-11.34,9.51-29.28,23.15-18.12ZM185.22,166.99c-3.28-.03-6.55.52-9.75.35-4.16-.22-15.07-3.32-4.42-4.45,4.81-.51,14.2.12,18.53,2.33,7.02,3.58-2.92,1.78-4.36,1.77Z"/>
    <path d="M56.01,207.2c1.31.6,2.7,1.28,4.15,2.03-2.29-1.82-4.15-2.03-4.15-2.03Z"/>
  </g>
  <g>
    <path class="st8" d="M50.9,157.02c-.55.35-1.08.75-1.58,1.18,0,0,.56-.44,1.58-1.18Z"/>
    <path class="st8" d="M314.43,170.83s-.16.11-.48.28c-1.88.99-9.36,3.96-23.44-1.65-5.92-2.36-11.91-8.79-17.14-16.06-.31-.43-.62-.85-.91-1.29,0,0,0,0,0,0-8.88-12.7-15.38-27.34-15.38-27.34,0,0,.28-.18.8-.54,3.19-2.2,15.46-11,27.73-24.43,8.03-8.78,9.7-35.21,9.63-56.64v-.34c-.07-16.5-1.16-29.95-1.16-29.95-1.78,6.24-26.3,15.61-63.75,27.64-28.24,9.08-32.9,20.18-33.49,25.1,0,0,0,0,0,0-.02.11-.03.22-.04.33-.12,1.39.09,2.21.09,2.21l-.62.43c-15.48-13.49-38.48-23.38-48.24-27.22-2.72-1.07-4.41-1.67-4.62-1.74,7.04,3.54,17.49,23.52,27.03,44.91.26.58.51,1.15.77,1.73l-1.81,1.28c-5.43-.57-9.51.23-9.51.23,0,0-2.23-12.49-8.03-25.41-5.79-12.93-21.84-20.96-37.89-27.2-16.05-6.24-45.47-26.3-45.47-26.3l-4.01,27.19c-1.1,7.82-1.61,15.04-1.65,21.69-.3,43.04,18.83,62.21,24.28,66.8.91.76,1.44,1.12,1.44,1.12-6.69,4.9-17.16,19.16-17.16,19.16-4.69,2.19-9,4.65-12.55,6.86-.26.16-.52.32-.77.48-3.18,2.01-5.67,3.77-7.17,4.86,4.73-3.06,10.97-3.14,14.72-2.83,2.01.17,3.31.44,3.31.44,0,0-6.24,2.67-12.03,9.36-5.12,5.9-27.95,7.29-33.24,7.53-.7.03-1.09.05-1.09.05,6.32,15.61,33.4,16.66,42.23,16.57,1.76-.02,2.8-.08,2.8-.08l-12,10.06-1.82,1.53s17.38,7.13,34.33,13.38c12.96,4.77,23.31,23.11,27.46,31.47.54,1.1.98,2.02,1.31,2.72l-2.66-.92c-9.39-6.71-36.56-25.82-54.04-34.81.59.47,1.21,1.05,1.84,1.76l-5.99-3.79s-15.16-2.68-26.31-16.05c0,0-2.82,10.31-2.96,24.89h0c-.23,25.15,7.53,62.94,51.55,82.29,41.17,18.1,60.08,15.8,68.66,10.91,7.82,12.82,17.61,21.69,25.4,13.42,2.88-3.06,3.9-6.91,3.66-11.13-.23-4.24-1.72-8.85-3.84-13.4.42.19.83.37,1.22.54,3.64,1.61,5.64,2.59,5.64,2.59,1.35-1.75,2.92-3.09,4.66-4.13.37-.22.75-.43,1.13-.63-2.39,5.75-3.53,10.52-3.72,14.41h0c-.47,9.53,4.76,13.73,11.31,13.98,9.41.35,18.81-12.64,21.84-34.16,11.93-4.08,18.73-19.94,18.73-19.94,3.89-7.25,4.32-21.84,4.27-29.28-.02-2.8-.11-4.59-.11-4.59.02-.05.05-.1.07-.15,7.66-16.32,57.29-35.81,57.29-35.81l-2.12-1.41-12.15-8.1c1.14,0,2.25,0,3.32-.06,29.2-1.26,30.86-22.83,30.86-22.83ZM215.66,127.2c6.38,5.22,8.7,14.12,9.57,22l-13.61,2.91c3.15-12.54-13.35-18.61-19.11-6.8,1.42-11.34,9.51-29.28,23.15-18.12ZM182.56,253.61c-18.03,4.36-30.16-6.05-32.07-23.64-.78-7.17-1.65-17.93,2.58-23.95l.37,2.72c.47.91,5.39-1.57,6.38-1.8,5.57-1.32,23-.47,29.35.02.98.07,2.31,1.19,2.63-.11l.49.48c8.07,13.4,9.21,41.72-9.72,46.3ZM185.22,166.99c-3.28-.03-6.55.52-9.75.35-4.16-.22-15.07-3.32-4.42-4.45,4.81-.51,14.2.12,18.53,2.33,7.02,3.58-2.92,1.78-4.36,1.77ZM131.03,151.79l-12.61-4.41c2.36-27.42,32.27-34.99,33.34-1.74-5.2-12.18-23.21-7.23-20.74,6.15Z"/>
    <path class="st8" d="M56.01,209.47c1.31.6,2.7,1.28,4.15,2.03-2.29-1.82-4.15-2.03-4.15-2.03Z"/>
  </g>
  <path class="st18" d="M50.9,157.02c-.55.35-1.08.75-1.58,1.18,0,0,.56-.44,1.58-1.18Z"/>
  <path class="st16" d="M50.9,157.02c-.55.35-1.08.75-1.58,1.18,0,0,.56-.44,1.58-1.18Z"/>
  <path class="st5" d="M165.72,337.23c-7.59,0-15.06-4.92-22.25-14.62-3.74.98-7.9,1.47-12.44,1.47-14.53,0-33.5-5.1-56.39-15.16-21.6-9.5-37.37-24.05-46.86-43.26-6.88-13.92-10.28-29.88-10.12-47.42.14-15.62,3.15-26.75,3.28-27.22.44-1.62,1.31-3.04,2.47-4.16-4.26-3.24-7.37-7.21-9.26-11.88-1.11-2.75-.81-5.88.81-8.36,1.61-2.48,4.35-4.03,7.31-4.12l.97-.04c8.11-.37,14.58-1.25,19.17-2.18-1.46-3.76-.28-8.11,3.13-10.59,1.66-1.21,4.33-3.09,7.67-5.21l.84-.52c3.85-2.4,7.69-4.53,11.41-6.37,1.94-2.54,5.82-7.49,9.9-11.94-3.44-3.92-7.46-9.45-11.11-16.87-7.11-14.49-10.65-31.68-10.51-51.1.05-7.28.63-14.98,1.74-22.89l4.02-27.26c.46-3.11,2.46-5.73,5.34-6.99,1.16-.51,2.39-.76,3.64-.76,1.83,0,3.6.54,5.11,1.58.29.2,28.77,19.56,43.65,25.35,5.98,2.33,12.33,5,18.36,8.27,1.62-2.72,4.56-4.42,7.8-4.42,1.01,0,2,.17,2.95.49.24.08,2.03.71,4.99,1.87,7.47,2.94,25.26,10.46,40.61,20.94,1.45-2.16,3.26-4.24,5.41-6.22,6.7-6.18,16.85-11.48,30.17-15.77,20.5-6.59,34.64-11.58,44.52-15.72,9.6-4.02,12.87-6.36,13.79-7.12,1.48-3.14,4.69-5.23,8.22-5.23.28,0,.57.01.86.04,4.41.43,7.84,3.92,8.2,8.31.05.57,1.12,14.04,1.19,30.65v.38c.11,33.73-3.71,53.68-12.01,62.77-8.94,9.78-17.81,17.19-23.75,21.74,2.66,5.24,6.67,12.55,11.34,19.24l.86,1.21c6.75,9.37,11.11,12.11,13.11,12.91,4.46,1.78,8.44,2.68,11.82,2.68,2.37,0,3.66-.47,3.98-.61,1.43-.89,3.07-1.36,4.77-1.36,1.58,0,3.14.42,4.52,1.2,3.02,1.74,4.8,5.1,4.53,8.58-.1,1.34-.89,8.35-6.21,15.62-2.78,3.79-7.42,8.4-14.84,11.63.91,1.62,1.32,3.51,1.11,5.43-.36,3.37-2.55,6.24-5.7,7.48-.5.2-12.39,4.92-24.95,11.42-18.37,9.5-24.56,15.72-26.58,18.41.01.64.02,1.39.03,2.22.08,10.48-.76,24.73-5.16,33.28-1.35,3.02-7.55,15.71-18.74,22.2-1.81,9.39-4.88,17.57-8.94,23.81-5.56,8.54-12.92,13.25-20.71,13.25-.22,0-.44,0-.67-.01-5.21-.19-9.73-1.92-13.22-5.01-3.73,3.92-8.28,5.99-13.19,5.99ZM159.04,216.97c-.36,4.36.18,9.34.47,12.01.67,6.18,3.53,16.53,15.16,16.53,1.79,0,3.72-.25,5.74-.74,3.1-.75,5.21-2.68,6.63-6.07,2.83-6.78,1.81-16.26-.71-22.86-3.85-.25-10.08-.54-15.78-.54-5.23,0-7.5.26-8.31.39-.2.08-.43.18-.56.23-.93.39-1.8.74-2.64,1.04Z"/>
  <path d="M165.72,332.03c-6.55,0-13.34-5.23-20.2-15.54-4.07,1.59-8.93,2.4-14.49,2.4-13.81,0-32.08-4.95-54.3-14.72-20.46-8.99-35.36-22.72-44.29-40.81-6.51-13.19-9.74-28.35-9.58-45.07.14-14.91,2.97-25.45,3.09-25.89.38-1.4,1.5-2.47,2.93-2.77.27-.06.55-.09.83-.09,1.16,0,2.25.51,2.99,1.4,9.99,11.98,23.87,14.69,24.01,14.71.49.09.96.27,1.39.54l2.26,1.43c.55.03,1.1.17,1.59.43,13.19,6.79,31.46,18.98,44.41,27.98-4.89-7.74-11.83-16.47-19.59-19.33-16.73-6.17-34.29-13.36-34.46-13.43-1.25-.51-2.16-1.66-2.37-3-.21-1.34.31-2.71,1.34-3.58l5.79-4.86c-13.53-.86-32.39-4.67-38.11-18.79-.48-1.18-.35-2.51.34-3.58.69-1.06,1.86-1.72,3.13-1.77,0,0,0,0,.01,0,.05,0,.42-.01,1.03-.04,15.15-.7,27.97-3.3,30.48-6.2.81-.94,1.67-1.84,2.56-2.71-1.23.35-2.43.85-3.5,1.54-.63.41-1.36.62-2.11.62-1.28,0-2.48-.63-3.21-1.69-1.2-1.75-.8-4.09.91-5.34,1.6-1.16,4.17-2.98,7.39-5.01l.17-.1c.21-.13.42-.27.64-.4,4.08-2.54,8.14-4.78,12.05-6.65,1.86-2.48,8.13-10.66,13.72-16.04-3.53-3.38-8.91-9.55-13.65-19.2-6.75-13.76-10.11-30.17-9.98-48.77.04-7.06.61-14.52,1.69-22.2l4.02-27.22c.2-1.33,1.05-2.45,2.29-2.99.49-.22,1.02-.33,1.56-.33.78,0,1.54.23,2.19.68.29.2,29.25,19.89,44.69,25.89,12.09,4.7,24.88,10.59,33.28,19.39-3.69-5.49-5.88-7.26-6.99-7.82-1.82-.92-2.63-3.1-1.84-4.98.61-1.45,2.02-2.38,3.58-2.38.43,0,.86.07,1.26.21.2.07,1.93.68,4.78,1.8,8.31,3.27,28.66,11.92,44.36,23.84,1.01-2.88,3.05-6.43,7.07-10.14,6.14-5.66,15.65-10.59,28.24-14.64,20.65-6.64,34.93-11.68,44.94-15.88,14.57-6.11,16.17-8.94,16.27-9.16.48-1.65,2.01-2.79,3.73-2.79.13,0,.25,0,.38.02,1.87.19,3.34,1.68,3.5,3.55.01.13,1.11,13.72,1.18,30.25v.35c.11,31.92-3.38,51.31-10.65,59.27-10.72,11.72-21.33,19.94-26.49,23.66,2.42,5.03,7.46,14.92,13.66,23.8.02.03.04.06.06.09.23.33.46.66.7.98l.13.17c5.74,7.98,10.93,12.93,15.42,14.72,5.08,2.02,9.7,3.05,13.74,3.05,3.82,0,5.91-.94,6.46-1.23.06-.03.11-.06.13-.07.63-.43,1.38-.66,2.16-.66.68,0,1.35.18,1.94.52,1.29.74,2.05,2.18,1.93,3.68-.05.67-.63,6.68-5.22,12.94-3.42,4.67-9.83,10.35-21.43,12.58l2.9,1.93,2.12,1.41c1.21.81,1.86,2.21,1.71,3.65-.16,1.44-1.09,2.67-2.44,3.2-.12.05-12.38,4.88-25.43,11.64-15.83,8.19-26.24,15.82-29.42,21.56.03.82.06,2.1.07,3.71.06,8.16-.46,23.03-4.65,30.99-.85,1.92-7.27,15.73-18.73,21.03-1.61,9.77-4.58,18.19-8.62,24.39-4.57,7.02-10.38,10.89-16.36,10.89-.17,0-.34,0-.51,0-4.5-.17-8.29-1.8-10.98-4.73-1.11-1.21-1.99-2.58-2.65-4.12-.79,2-1.95,3.8-3.46,5.41-2.77,2.94-5.96,4.43-9.47,4.43ZM154.42,212.8c-1.27,5.67-.47,13.04-.06,16.75,1.44,13.25,9.04,21.17,20.33,21.17,2.2,0,4.54-.3,6.96-.88,4.72-1.14,8.15-4.21,10.2-9.12,3.84-9.19,1.94-21.78-1.86-29.49-.48-.1-.88-.25-1.19-.36-.05-.02-.11-.04-.16-.06-3.34-.25-11.11-.69-18.08-.69-6.2,0-8.77.35-9.77.58-.22.08-.82.33-1.09.44-2.14.89-3.82,1.54-5.28,1.66ZM201.92,135.08c4.32,0,8.46,2.01,11.09,5.38,1.54,1.97,2.48,4.28,2.78,6.78l5.08-1.09c-1.29-7.47-3.87-12.83-7.68-15.95-2.14-1.75-4.09-2.64-5.79-2.64-3.31,0-6.12,3.55-8.06,7.75.84-.15,1.7-.23,2.58-.23ZM127.21,146.34c.46-2.32,1.47-4.45,2.96-6.24,2.76-3.31,7.05-5.29,11.49-5.29,1.56,0,3.07.23,4.51.69-1.81-5.12-4.9-7.98-8.79-7.98-5.88,0-12.78,6.41-14.69,17.24l4.53,1.58ZM158.35,68.03c2.35,6.41,3.83,12.09,4.61,15.49.81-.05,1.64-.07,2.47-.07.09,0,.17,0,.26,0-2.71-5.98-5.14-11.07-7.34-15.42Z"/>
  <path class="st9" d="M314.43,170.83s-.16.11-.48.28c-1.88.99-9.36,3.96-23.44-1.65-5.92-2.36-11.91-8.79-17.14-16.06-.31-.43-.62-.85-.91-1.29,0,0,0,0,0,0-8.88-12.7-15.38-27.34-15.38-27.34,0,0,.28-.18.8-.54,3.19-2.2,15.46-11,27.73-24.43,8.03-8.78,9.7-35.21,9.63-56.64v-.34c-.07-16.5-1.16-29.95-1.16-29.95-1.78,6.24-26.3,15.61-63.75,27.64-28.24,9.08-32.9,20.18-33.49,25.1,0,0,0,0,0,0-.02.11-.03.22-.04.33-.12,1.39.09,2.21.09,2.21l-.62.43c-15.48-13.49-38.48-23.38-48.24-27.22-2.72-1.07-4.41-1.67-4.62-1.74,7.04,3.54,17.49,23.52,27.03,44.91.26.58.51,1.15.77,1.73l-1.81,1.28c-5.43-.57-9.51.23-9.51.23,0,0-2.23-12.49-8.03-25.41-5.79-12.93-21.84-20.96-37.89-27.2-16.05-6.24-45.47-26.3-45.47-26.3l-4.01,27.19c-1.1,7.82-1.61,15.04-1.65,21.69-.3,43.04,18.83,62.21,24.28,66.8.91.76,1.44,1.12,1.44,1.12-6.69,4.9-17.16,19.16-17.16,19.16-4.69,2.19-9,4.65-12.55,6.86-.26.16-.52.32-.77.48-3.18,2.01-5.67,3.77-7.17,4.86,4.73-3.06,10.97-3.14,14.72-2.83,2.01.17,3.31.44,3.31.44,0,0-6.24,2.67-12.03,9.36-5.12,5.9-27.95,7.29-33.24,7.53-.7.03-1.09.05-1.09.05,6.32,15.61,33.4,16.66,42.23,16.57,1.76-.02,2.8-.08,2.8-.08l-12,10.06-1.82,1.53s17.38,7.13,34.33,13.38c12.96,4.77,23.31,23.11,27.46,31.47.54,1.1.98,2.02,1.31,2.72l-2.66-.92c-9.39-6.71-36.56-25.82-54.04-34.81.59.47,1.21,1.05,1.84,1.76l-5.99-3.79s-15.16-2.68-26.31-16.05c0,0-2.82,10.31-2.96,24.89h0c-.23,25.15,7.53,62.94,51.55,82.29,41.17,18.1,60.08,15.8,68.66,10.91,7.82,12.82,17.61,21.69,25.4,13.42,2.88-3.06,3.9-6.91,3.66-11.13-.23-4.24-1.72-8.85-3.84-13.4.42.19.83.37,1.22.54,3.64,1.61,5.64,2.59,5.64,2.59,1.35-1.75,2.92-3.09,4.66-4.13.37-.22.75-.43,1.13-.63-2.39,5.75-3.53,10.52-3.72,14.41h0c-.47,9.53,4.76,13.73,11.31,13.98,9.41.35,18.81-12.64,21.84-34.16,11.93-4.08,18.73-19.94,18.73-19.94,3.89-7.25,4.32-21.84,4.27-29.28-.02-2.8-.11-4.59-.11-4.59.02-.05.05-.1.07-.15,7.66-16.32,57.29-35.81,57.29-35.81l-2.12-1.41-12.15-8.1c1.14,0,2.25,0,3.32-.06,29.2-1.26,30.86-22.83,30.86-22.83ZM215.66,127.2c6.38,5.22,8.7,14.12,9.57,22l-13.61,2.91c3.15-12.54-13.35-18.61-19.11-6.8,1.42-11.34,9.51-29.28,23.15-18.12ZM182.56,253.61c-18.03,4.36-30.16-6.05-32.07-23.64-.78-7.17-1.65-17.93,2.58-23.95l.37,2.72c.47.91,5.39-1.57,6.38-1.8,5.57-1.32,23-.47,29.35.02.98.07,2.31,1.19,2.63-.11l.49.48c8.07,13.4,9.21,41.72-9.72,46.3ZM185.22,166.99c-3.28-.03-6.55.52-9.75.35-4.16-.22-15.07-3.32-4.42-4.45,4.81-.51,14.2.12,18.53,2.33,7.02,3.58-2.92,1.78-4.36,1.77ZM131.03,151.79l-12.61-4.41c2.36-27.42,32.27-34.99,33.34-1.74-5.2-12.18-23.21-7.23-20.74,6.15Z"/>
  <path class="st0" d="M163.91,321.02c-4.14,0-10.02-5.58-15.72-14.92-.67-1.1-1.84-1.71-3.05-1.71-.6,0-1.21.15-1.76.47-3.51,2-8.28,3.02-14.16,3.02-12.77,0-30.03-4.74-51.3-14.09-18.81-8.27-32.47-20.81-40.61-37.29-5.99-12.13-8.96-26.16-8.81-41.7,0-.01,0-.02,0-.03.07-7.16.81-13.28,1.52-17.55,9.55,8.64,19.97,11.43,22.82,12.06l5.44,3.44c.59.37,1.25.55,1.9.55.17,0,.34-.01.5-.04,17.48,9.67,42.07,27.01,49.63,32.42.28.2.59.36.91.47l2.66.92c.38.13.77.19,1.16.19.99,0,1.96-.41,2.65-1.18.96-1.06,1.19-2.59.59-3.89-.42-.92-.88-1.86-1.35-2.81-5.08-10.23-15.66-28.16-29.42-33.23-10.98-4.05-22.25-8.51-28.72-11.11l9.28-7.78c1.18-.99,1.59-2.62,1.02-4.05-.54-1.36-1.86-2.25-3.31-2.25-.07,0-.14,0-.21,0,0,0-.99.06-2.62.07-.27,0-.55,0-.85,0-6.59,0-26.48-.79-35.06-9.79,11.04-.8,25.93-2.92,30.74-8.46,5.13-5.92,10.7-8.4,10.76-8.42,1.42-.62,2.28-2.09,2.12-3.63-.16-1.54-1.28-2.81-2.79-3.13-.12-.02-.94-.2-2.24-.36,1.85-1,3.67-1.92,5.46-2.75.54-.25,1.01-.64,1.37-1.12.1-.14,10.22-13.87,16.39-18.39.94-.69,1.48-1.78,1.46-2.94-.02-1.16-.61-2.24-1.57-2.88h0s-.42-.3-1.14-.9c-2.3-1.94-8.21-7.55-13.42-17.86-6.49-12.86-9.72-28.4-9.6-46.18.04-6.73.59-13.87,1.61-21.22l3.19-21.59c9.05,5.96,28.97,18.67,41.48,23.53,13.86,5.39,30.47,13.14,35.93,25.33,5.54,12.34,7.75,24.46,7.77,24.58.17.94.71,1.77,1.5,2.31.6.41,1.3.62,2.01.62.23,0,.46-.02.68-.07,0,0,1.96-.37,4.87-.37,1.21,0,2.41.06,3.59.19.12.01.25.02.37.02.73,0,1.45-.23,2.05-.65l1.81-1.28c1.39-.98,1.89-2.8,1.2-4.36l-.77-1.73c-7.54-16.9-13.25-27.62-17.64-34.49,11,4.9,26.59,12.84,37.87,22.67.67.58,1.5.88,2.34.88.72,0,1.43-.22,2.05-.65l.62-.43c1.26-.89,1.86-2.28,1.42-3.74-.02-.13-.06-.51,0-1.07,0-.04,0-.09.01-.13,0-.04,0-.07.01-.11.37-2.99,3.71-13.32,31.03-22.1,34.8-11.18,51.64-17.99,59.6-23.09.3,5.46.62,13.34.66,22.03v.32c.13,38.77-5.4,50.62-8.7,54.24-11.93,13.05-23.78,21.59-27.13,23.9-.45.31-.7.47-.72.49-1.46.96-2.02,2.84-1.31,4.43.27.61,6.73,15.06,15.68,27.88,0,.01.02.03.03.04h0c.27.4.55.79.84,1.18l.12.17c6.59,9.15,12.88,14.97,18.71,17.29,5.96,2.38,11.51,3.58,16.5,3.58,1.29,0,2.46-.08,3.51-.21-2.61,5.53-9.21,13.25-25.78,13.97-.84.04-1.72.05-2.59.05-.18,0-.57,0-.58,0-1.56,0-2.95,1.02-3.41,2.52-.46,1.51.12,3.14,1.43,4.01l8.72,5.81c-4.92,2.11-12.21,5.39-19.88,9.36-18.41,9.52-29.54,18.14-33.08,25.62-.03.07-.06.13-.1.2-.24.52-.36,1.12-.33,1.7,0,.02.09,1.76.1,4.43.09,12.8-1.31,22.85-3.84,27.57-.05.09-.09.19-.14.28-.06.14-6.34,14.47-16.61,17.98-1.27.43-2.19,1.55-2.38,2.88-1.36,9.66-4.06,17.82-7.83,23.6-3.15,4.84-6.74,7.5-10.11,7.5-.08,0-.16,0-.24,0-1.72-.06-4.11-.52-5.76-2.32-1.58-1.72-2.29-4.38-2.12-7.91,0-.02,0-.03,0-.05.19-3.69,1.35-8.12,3.45-13.17.57-1.38.23-2.97-.87-3.98-.67-.62-1.54-.95-2.42-.95-.55,0-1.1.13-1.61.39-.5.25-.94.5-1.36.75-1.34.8-2.58,1.75-3.69,2.83-.88-.41-1.99-.91-3.32-1.5-.25-.11-.53-.23-.81-.36l-.41-.18c-.46-.21-.96-.31-1.44-.31-.94,0-1.86.37-2.55,1.07-1.04,1.06-1.31,2.66-.69,4,2.15,4.6,3.33,8.67,3.51,12.08.2,3.58-.68,6.36-2.7,8.5-1.32,1.4-2.65,2.09-4.05,2.09ZM151.26,198.89c-1.14,0-2.24.55-2.92,1.52-4.64,6.6-4.22,17.04-3.21,26.38,1.86,17.15,12.49,27.81,27.74,27.81,2.79,0,5.72-.37,8.71-1.09,7.05-1.7,12.35-6.37,15.33-13.49,5.21-12.46,2.14-28.94-3.39-38.11-.16-.26-.34-.49-.56-.71l-.49-.48c-.68-.66-1.58-1.02-2.5-1.02-.32,0-.65.04-.97.13-.15.04-.29.09-.43.15-.29-.07-.61-.14-.96-.16-3.31-.25-11.52-.73-18.87-.73-5.51,0-9.29.26-11.56.8-.54.13-1.11.36-2.15.79-.15.06-.34.14-.56.23-.45-.95-1.31-1.67-2.37-1.93-.28-.07-.56-.1-.84-.1ZM183.35,167c.19.01.77.08,1.2.13,1.3.15,2.91.34,4.23.34,3.46,0,4.59-1.68,4.93-3.1.79-3.27-2.54-4.96-4.32-5.87-4.18-2.13-11.51-2.89-16.52-2.89-1.5,0-2.85.06-4.01.19-2.34.25-7.83.83-7.72,5.13.09,3.48,4.21,4.71,5.96,5.23,2.13.63,4.63,1.1,6.37,1.19.47.02.95.04,1.47.04,1.47,0,2.92-.1,4.32-.2,1.35-.1,2.63-.19,3.9-.19h.2ZM200.11,138.98c2.04,0,3.99.94,5.21,2.51,1.28,1.64,1.63,3.78,1.03,6.2-.3,1.19.04,2.46.89,3.34.68.7,1.61,1.09,2.56,1.09.25,0,.5-.03.75-.08l13.61-2.91c1.79-.38,3-2.06,2.8-3.88-1.27-11.46-4.82-19.43-10.86-24.37-3.51-2.87-7.05-4.33-10.51-4.33-11.25,0-17.19,14.81-18.43,24.76-.22,1.73.85,3.36,2.52,3.86.34.1.68.15,1.02.15,1.33,0,2.59-.75,3.2-2,1.85-3.78,4.69-4.35,6.21-4.35ZM135.57,116.51c-5.3,0-10.72,2.77-14.86,7.59-4.34,5.04-6.97,11.76-7.63,19.43-.14,1.62.84,3.13,2.38,3.67l12.61,4.41c.38.13.78.2,1.18.2.84,0,1.66-.3,2.32-.86.96-.83,1.42-2.1,1.19-3.35-.46-2.49.01-4.66,1.37-6.28,1.36-1.63,3.51-2.6,5.76-2.6,1.44,0,4.99.47,6.83,4.78.57,1.33,1.87,2.16,3.28,2.16.26,0,.51-.03.77-.08,1.67-.37,2.85-1.88,2.79-3.59-.26-7.96-2.06-14.28-5.36-18.76-3.17-4.32-7.65-6.7-12.6-6.7Z"/>
  <path class="st3" d="M274.64,191.57s.39,0,.56,0c.85,0,1.7-.02,2.52-.05,16.11-.69,22.52-8.21,25.06-13.58-1.02.13-2.16.21-3.42.21-4.85,0-10.25-1.17-16.04-3.48-5.67-2.26-11.79-7.91-18.19-16.81l-.12-.17c-.27-.38-.55-.76-.81-1.15,0-.01-.02-.02-.02-.04-8.7-12.46-14.98-26.51-15.24-27.1-.69-1.55-.15-3.38,1.27-4.31.02-.02.26-.17.7-.48,3.26-2.24,14.78-10.55,26.37-23.23,3.21-3.51,8.58-15.03,8.46-52.73v-.31c-.03-8.44-.35-16.11-.64-21.41-7.74,4.96-24.11,11.58-57.94,22.45-26.57,8.54-29.81,18.58-30.17,21.49,0,.04,0,.07-.01.11,0,.05,0,.09-.01.13-.05.55-.01.92,0,1.04.44,1.42-.15,2.77-1.38,3.64l-.6.42c-.6.42-1.3.63-2,.63-.82,0-1.63-.29-2.28-.85-10.97-9.56-26.12-17.28-36.82-22.04,4.27,6.68,9.82,17.1,17.15,33.53l.75,1.68c.67,1.51.18,3.28-1.17,4.24l-1.76,1.24c-.59.41-1.28.63-2,.63-.12,0-.24,0-.36-.02-1.14-.12-2.32-.18-3.49-.18-2.82,0-4.72.35-4.73.36-.22.04-.44.06-.66.06-.69,0-1.38-.21-1.96-.61-.77-.52-1.29-1.33-1.45-2.25-.02-.12-2.17-11.9-7.55-23.9-5.31-11.85-21.46-19.39-34.93-24.63-12.16-4.73-31.52-17.08-40.32-22.88l-3.1,20.99c-1,7.14-1.53,14.08-1.57,20.63-.12,17.29,3.02,32.39,9.33,44.9,5.06,10.03,10.81,15.48,13.04,17.37.69.59,1.11.87,1.11.87h0c.93.63,1.5,1.68,1.52,2.8.02,1.13-.51,2.19-1.42,2.86-6,4.4-15.84,17.75-15.94,17.88-.34.47-.8.84-1.33,1.09-1.74.81-3.51,1.7-5.31,2.67,1.27.16,2.06.32,2.18.35,1.47.32,2.57,1.55,2.72,3.04.15,1.5-.69,2.92-2.07,3.53-.05.02-5.47,2.43-10.46,8.19-4.67,5.39-19.14,7.45-29.88,8.23,8.34,8.76,27.68,9.52,34.08,9.52.29,0,.57,0,.83,0,1.59-.02,2.54-.07,2.55-.07.07,0,.14,0,.21,0,1.41,0,2.69.86,3.22,2.18.55,1.39.15,2.98-.99,3.94l-9.02,7.56c6.29,2.53,17.25,6.87,27.92,10.8,13.38,4.93,23.66,22.35,28.6,32.3.46.92.9,1.84,1.31,2.73.58,1.26.36,2.75-.57,3.78-.67.74-1.61,1.14-2.57,1.14-.38,0-.76-.06-1.13-.19l-2.59-.89c-.32-.11-.62-.26-.89-.46-7.35-5.25-31.25-22.11-48.25-31.52-.16.02-.32.03-.49.03-.64,0-1.28-.18-1.85-.54l-5.29-3.35c-.93-.21-2.71-.65-5-1.48,0,.05-.01.1-.02.16-.1.55-.2,1.1-.3,1.64,8.95,1.43,16.02,7.95,24.3,11.21,3.17,1.25,2.8,5.88-.82,6.05-5.57.25-11.22-.35-16.5-2.19-2.18-.76-4.28-1.7-6.31-2.77,0,.01,0,.02,0,.04-.03.47-.02.94.03,1.4,0-.03.1.56.2.99.14.58.32,1.15.52,1.71.73,2.02,2,4.1,3.28,5.94,2.41,3.46,5.53,6.95,9.03,8.75.4.2.7.46.94.73,2.4,1.61.72,6.22-2.72,5.49-4.66-1-8.88-3.3-12.83-5.97.67,3.98,1.6,7.91,2.66,11.82.72.04,1.41.32,1.87.89,6.72,8.36,18.66,10.46,28.36,13.47,3.29,1.02,2.7,6.05-.82,6.05-5.99,0-12-.16-17.91-1.22-1.88-.34-3.74-.8-5.56-1.35,1.58,3.44,3.51,6.65,6.03,9.21.96.98,1.07,2.13.69,3.12,4.62,3.19,9.7,6.02,15.24,8.45,20.68,9.09,37.45,13.7,49.87,13.7,5.72,0,10.35-.99,13.77-2.93.54-.31,1.13-.46,1.71-.46,1.17,0,2.31.59,2.96,1.66,5.54,9.08,11.25,14.51,15.28,14.51,1.36,0,2.65-.66,3.94-2.03,1.96-2.08,2.82-4.78,2.62-8.26-.18-3.32-1.32-7.27-3.41-11.74-.61-1.31-.34-2.86.67-3.89.67-.68,1.56-1.04,2.47-1.04.47,0,.95.1,1.4.3l.4.18c.28.12.55.24.79.35,1.29.57,2.37,1.06,3.22,1.45,1.08-1.05,2.28-1.97,3.59-2.75.41-.25.84-.49,1.32-.73.5-.25,1.03-.38,1.57-.38.85,0,1.7.32,2.36.92,1.06.99,1.4,2.53.84,3.87-2.04,4.91-3.17,9.22-3.36,12.81,0,.02,0,.03,0,.05-.17,3.43.52,6.02,2.06,7.69,1.61,1.75,3.94,2.2,5.6,2.26.08,0,.15,0,.23,0,3.28,0,6.77-2.59,9.83-7.29,3.66-5.62,6.29-13.55,7.61-22.94.18-1.29,1.08-2.37,2.31-2.8,9.98-3.41,16.09-17.34,16.15-17.47.04-.09.08-.18.13-.27,2.47-4.6,3.83-14.36,3.74-26.81-.01-2.6-.1-4.29-.1-4.3-.03-.56.09-1.14.32-1.65.03-.06.06-.13.09-.19,3.45-7.27,14.27-15.65,32.16-24.91,7.46-3.86,14.54-7.04,19.33-9.1l-8.47-5.65c-1.28-.85-1.84-2.44-1.39-3.9.45-1.46,1.79-2.45,3.31-2.45ZM168.12,161.62c1.13-.12,2.44-.18,3.9-.18,4.87,0,11.99.73,16.06,2.81,1.73.89,4.96,2.53,4.2,5.71-.33,1.37-1.43,3.01-4.79,3.01-1.28,0-2.85-.18-4.11-.33-.42-.05-.98-.11-1.17-.12h-.19c-1.23,0-2.47.09-3.79.18-1.36.1-2.77.2-4.2.2-.5,0-.97-.01-1.43-.04-1.69-.09-4.12-.54-6.19-1.16-1.71-.51-5.7-1.7-5.8-5.09-.11-4.18,5.23-4.74,7.5-4.98ZM139.91,145c-2.19,0-4.28.95-5.6,2.53-1.31,1.58-1.77,3.69-1.33,6.11.22,1.21-.22,2.46-1.15,3.26-.64.55-1.44.83-2.26.83-.38,0-.77-.06-1.14-.19l-12.25-4.28c-1.49-.52-2.44-1.99-2.31-3.57.64-7.46,3.21-13.99,7.42-18.89,4.03-4.69,9.3-7.38,14.45-7.38,4.82,0,9.17,2.31,12.25,6.51,3.21,4.36,4.96,10.5,5.21,18.24.05,1.67-1.09,3.13-2.71,3.49-.25.06-.5.08-.75.08-1.36,0-2.63-.81-3.19-2.1-1.79-4.2-5.24-4.65-6.64-4.65ZM195.39,243.5c-2.89,6.92-8.04,11.46-14.9,13.12-2.91.7-5.76,1.06-8.47,1.06-14.82,0-25.16-10.36-26.96-27.04-.99-9.08-1.39-19.23,3.12-25.65.66-.94,1.72-1.47,2.83-1.47.27,0,.55.03.82.1,1.03.25,1.86.95,2.31,1.87.21-.09.39-.16.54-.22,1.02-.42,1.57-.65,2.09-.77,2.21-.52,5.89-.77,11.24-.77,7.15,0,15.13.46,18.35.71.34.03.65.08.93.16.13-.06.27-.11.42-.15.31-.09.63-.13.94-.13.89,0,1.77.35,2.43.99l.48.47c.21.2.39.44.54.69,5.37,8.92,8.35,24.93,3.29,37.05ZM221.88,155.14l-13.23,2.83c-.24.05-.48.08-.73.08-.93,0-1.83-.37-2.49-1.06-.83-.86-1.16-2.09-.87-3.25.59-2.35.24-4.44-1-6.03-1.19-1.53-3.09-2.44-5.07-2.44-1.49,0-4.25.55-6.04,4.22-.59,1.22-1.82,1.95-3.11,1.95-.33,0-.66-.05-.99-.14-1.62-.48-2.66-2.07-2.45-3.75,1.21-9.68,6.98-24.07,17.92-24.07,3.37,0,6.81,1.42,10.22,4.21,5.87,4.8,9.32,12.55,10.56,23.69.2,1.77-.98,3.4-2.72,3.77Z"/>
  <path class="st2" d="M56.01,209.47c1.31.6,2.7,1.28,4.15,2.03-2.29-1.82-4.15-2.03-4.15-2.03Z"/>
  <path class="st16" d="M56.01,209.47c1.31.6,2.7,1.28,4.15,2.03-2.29-1.82-4.15-2.03-4.15-2.03Z"/>
  <path class="st12" d="M50.9,157.02c-.55.35-1.08.75-1.58,1.18,0,0,.56-.44,1.58-1.18Z"/>
  <path class="st0" d="M106.82,106.42c-.07,0-.15,0-.22-.01-7.78-.89-14.12-4.51-18.83-10.75-6.32-8.37-9.66-21.22-9.91-38.19-.19-12.5,1.42-22.44,1.48-22.86.15-.91.91-1.59,1.83-1.63.03,0,.06,0,.09,0,.88,0,1.66.6,1.88,1.46,5.72,22.29,49.33,57.95,49.77,58.31.53.43.8,1.11.7,1.79-.1.68-.55,1.25-1.18,1.51l-24.87,10.22c-.23.1-.49.15-.74.15Z"/>
  <path class="st4" d="M140.85,98.99s-36.48-29.64-41.35-48.65c0,0-8.77,53.61,20.96,57.03l20.39-8.38Z"/>
  <path class="st0" d="M235.76,106.33c.07.01.15.02.22.03,7.82.51,14.69-1.92,20.44-7.22,7.71-7.11,13.28-19.16,16.55-35.81,2.41-12.27,2.6-22.34,2.61-22.76.02-.92-.62-1.72-1.51-1.93-.03,0-.06-.01-.09-.02-.87-.16-1.74.29-2.11,1.1-9.59,20.92-58.86,48.25-59.35,48.52-.6.33-.98.95-1.01,1.64-.02.69.32,1.33.9,1.7l22.66,14.48c.21.14.45.23.7.27Z"/>
  <path class="st4" d="M204.5,90.07s41.17-22.68,49.35-40.52c0,0-.91,54.32-30.77,52.39l-18.58-11.87Z"/>
  <path d="M87.16,127.39c4.27-9.75,12.14-17.93,20.68-24.14,11.64-8.36,25.74-13.28,40.04-14.01,3.52-.2,7.11-.08,10.61.27-.86.21-1.73.38-2.59.57-2.12.4-4.29.93-6.4,1.37-.76.2-2.98.74-3.78.94-8.68,2.22-17.17,5.25-25.19,9.25-12.62,6.41-24.02,15.09-33.37,25.77h0Z"/>
  <path d="M253.37,120.32c-18.47-17.85-42.34-30.62-68.33-31.39-1.46-.04-2.93-.05-4.39.03,0,0-.57.04-.57.04l-2.32-2.1c.03-.21.01-.47.01-.7-.35-9.08-5.34-17.26-11.26-23.92,7.99,5.56,14.77,14.81,15.33,24.78,0,0-2.32-2.1-2.32-2.1.28-.04.49-.07.73-.11,3.37-.43,6.79-.5,10.18-.35,25.09,1.1,49.1,14.95,62.93,35.82h0Z"/>
  <path class="st13" d="M111.47,143.71c.87-2.14,1.13-3.67,1.64-6.19,2.91-14.21,10.57-39.55,26.51-25.88,4.14,3.63,7.13,7.93,9.75,12.37,3.78,6.64,4.74,17.86,3.04,26.29-.75,4.06-2.03,7.53-3.5,11.37-.83,1.98-1.76,4.94-3.31,6.12-1.24.8-2.59-.33-3.66-1.09-5.48-4.23-17.63-12.43-27.31-14.36-5.37-1.3-5.16-3.94-3.17-8.59l.02-.04Z"/>
  <path class="st13" d="M229.09,145.58c-.87-2.14-1.13-3.67-1.64-6.19-2.91-14.21-10.57-39.55-26.51-25.88-4.14,3.63-7.13,7.93-9.75,12.37-3.78,6.64-4.74,17.86-3.04,26.29.75,4.06,2.03,7.53,3.5,11.37.83,1.98,1.76,4.94,3.31,6.12,1.24.8,2.59-.33,3.66-1.09,5.48-4.23,17.63-12.43,27.31-14.36,5.37-1.3,5.16-3.94,3.17-8.59l-.02-.04Z"/>
  <path class="st12" d="M56.71,208.22c1.31.6,2.7,1.28,4.15,2.03-2.29-1.82-4.15-2.03-4.15-2.03Z"/>
  <path d="M148.9,158.3c-2.32-2.14-14.62-5.83-15.87-7.27-1.62-1.87.14-7.33,2.28-9.84.17-.26.39-.48.65-.66.16-.14.32-.26.49-.35v.09c.38-.17.82-.26,1.26-.27.47-.38,1.1-.63,1.88-.63,3.14,0,3.79,3.85,1.96,5.46.62.75.83,1.81.64,2.77.82.6,1.36,1.63,1.36,2.58,0,1.56-1.08,2.6-2.45,2.96,2.24-.05,2.39-2.65,4.09-2.64l2.42,1.66.34-1.3.64.64,1.3-2.26-.96,4.06c1.23.75.36,1.33.32,2.74l1.3-2.59.29.77-1.93,4.08ZM152.47,144.39c-5.2-12.18-23.21-7.23-20.74,6.15l-12.61-4.41c2.36-27.42,32.27-34.99,33.34-1.74ZM183.26,252.35c-18.03,4.36-30.16-6.05-32.07-23.64-.78-7.17-1.65-17.93,2.58-23.95l.37,2.72c.47.91,5.39-1.57,6.38-1.8,5.57-1.32,23-.47,29.35.02.98.07,2.31,1.19,2.63-.11l.49.48c8.07,13.4,9.21,41.72-9.72,46.3ZM241.15,165.15c-18.29,2.62-25.62,23.52-44.66,27.25-5.99,1.18-19.35,2.69-21.82-4.64-3.77,8.01-18.45,5.31-25.2,2.84-24.08-8.8-25.3-31.78-56.09-28.04-6.23.75-13.56,3.08-19.32,5.46,10.35-13.17,27.27-20.08,44.06-18.46-.79-.28-2.68-2.77-2.91-2.91,12.1,3.6,25.08,6.83,35.32,14.57l-.95-1.44c7.46-11.72,5.97-45.42-14.45-40.33-11.24,2.8-17.3,15.83-17.33,26.56l-5.18-.64c.29.18,1.26.68,1.94,1.01-.79-.1,1.22,2.32,1.94,2.55-16.78-2.13-35.12,6.49-44.07,20.72,14.39-6.75,35.89-9.05,48.61,2.1,21.79,19.11,16.32,67.51,39.76,80.06,14.37,7.7,34.37,4.96,40.93-11.42,6.42-16.03,12.72-54.08,24.12-65.25,10.51-10.29,22.34-10.26,36.14-7.77-6.58-2.36-13.88-3.21-20.85-2.21Z"/>
  <path class="st15" d="M184.2,251.81c-8.14,2.85-17.53,1.87-24.02-4.61-10.05-10.05-11.34-24.3-8.72-37.16.25-.99.56-1.93.94-2.81.38-.88.83-1.71,1.36-2.46l.36,2.72c8.97-2.73,18.37-2.41,27.64-2.26,1.1.05,2.15.1,3.14.15,1.97.11,3.69.22,4.95.31.98.07,2.31,1.19,2.63-.11l.49.48c.5.84.98,1.73,1.43,2.68.45.94.86,1.94,1.24,2.97,1.16,1.8,1.16,4.07.83,6.01,0,1.62-.32,3.24,0,4.54,1.62,10.05.65,22.36-8.89,28.16-1.07.59-2.2,1.05-3.39,1.4Z"/>
  <path class="st14" d="M178.27,227.22c1.02-3.14,2.77-5.85,5.23-8.15,3.32-3.32,7.8-5.7,12.48-6.78-.1-.2-.21-.4-.33-.59-.37-1.03-.79-2.02-1.24-2.97s-.92-1.84-1.43-2.68l-.49-.48c-.32,1.3-1.65.19-2.63.11-1.27-.1-2.98-.21-4.95-.31-.99-.05-2.04-.1-3.14-.15-9.27-.15-18.66-.47-27.64,2.26l-.36-2.72c-.53.75-.98,1.58-1.36,2.46-.38.88-.69,1.83-.94,2.81-.32,1.56-.58,3.14-.77,4.73.59.08,1.17.18,1.76.31,3.37.15,6.51,1.15,9.41,3,2.95,1.59,5.32,3.76,7.1,6.52,2.02,2.21,3.44,4.76,4.28,7.66.95,1.11,1.91,2.22,2.83,3.35.08-2.98.81-5.78,2.19-8.4Z"/>
  <path class="st10" d="M190.79,227.76c-.27.74-.6,1.47-.97,2.19-.95,2.91-2.56,5.43-4.85,7.56-4.26,4.26-10.58,6.88-16.6,6.88-4.33,0-8.34-1.24-11.9-3.36,5.11,7.28,13.78,10.6,24.84,7.93,12.2-2.95,15.41-16.52,13.73-28.7-1,2.7-2.48,5.23-4.25,7.5Z"/>
  <path class="st1" d="M152.47,144.39c-5.2-12.18-23.21-7.23-20.74,6.15l-12.61-4.41c2.36-27.42,32.27-34.99,33.34-1.74Z"/>
  <path class="st1" d="M185.92,165.74c-3.28-.03-6.55.52-9.75.35-4.16-.22-15.07-3.32-4.42-4.45,4.81-.51,14.2.12,18.53,2.33,7.02,3.58-2.92,1.78-4.36,1.77Z"/>
  <path class="st1" d="M212.32,150.86c3.15-12.54-13.35-18.61-19.11-6.8,1.42-11.34,9.51-29.28,23.15-18.12,6.38,5.22,8.7,14.12,9.57,22l-13.61,2.91Z"/>
  <path d="M253.15,157.98c-7.44-4.46-15.32-6.17-23.98-5.98,7.94-1.23,17.79.55,23.98,5.98Z"/>
  <path d="M270.88,149.01c.21.12,4.05,3.09,3.18,3.14l-17.99-8.41c4.53,1.44,10.74,2.9,14.81,5.27Z"/>
  <path class="st17" d="M145.35,138.82s-10.36-2.46-12.22,6.35c-1.86,8.81,2.68,7.34,2.68,7.34l13.77,7.27,2.9-13.03-7.13-7.93Z"/>
  <path class="st17" d="M200.14,138.82s-7.7,4.31-6.93,7.93c.76,3.62,2.47,11.99,2.47,11.99l15.69-6.12s3.79-9.1-3.72-11.45l-7.51-2.35Z"/>
  <ellipse class="st11" cx="145.35" cy="146.75" rx="7.13" ry="7.93"/>
  <ellipse class="st11" cx="202.58" cy="146.75" rx="7.13" ry="7.93"/>
  <ellipse class="st6" cx="209.71" cy="146.75" rx="1.51" ry="2.34"/>
  <ellipse class="st6" cx="138.22" cy="146.75" rx="1.51" ry="2.34"/>
  <path class="st0" d="M133.67,152.35l-20.8-6.84,4.16,3.42s-15.42.94-28.53,6.39c-6.54,2.38-15.56,13.89-15.56,13.89,0,0,32.56-17.39,58.16,8.63,5.56,5.65,12.29,10.04,19.78,12.66,10.3,3.61,22.53,5.77,23.21-3.96,1.19-16.95-40.42-34.19-40.42-34.19Z"/>
  <path class="st0" d="M260.96,155.63c-13.11-5.45-28.53-6.39-28.53-6.39l.94-.77c-.71-.11-1.34-.46-1.82-.99l-24.37,6.02s-33,16.4-31.81,33.35c.68,9.73,14.79,8.1,25.09,4.49,7.48-2.62,12.34-7.54,17.9-13.19,25.6-26.02,58.16-8.63,58.16-8.63,0,0-9.02-11.51-15.56-13.89Z"/>
  <path class="st7" d="M153.58,183.6c-5.99-3.96-12.03-7.78-18.37-11.18-3.07-1.65-6.19-3.2-9.35-4.66-3.16-1.46-6.38-3-9.76-3.87-3.4-.87-6.88-1.19-10.38-1.22-3.22-.03-6.61-.08-9.75.7-.79.2-1.57.43-2.35.68,11.48-1.33,26.52.55,39.72,13.96,5.56,5.65,12.29,10.04,19.78,12.66,6.34,2.22,13.4,2.47,18.06,1.16-5.87-3.21-12-4.55-17.59-8.24Z"/>
  <path class="st7" d="M196.1,184.13c5.99-3.96,12.03-7.78,18.37-11.18,3.07-1.65,6.19-3.2,9.35-4.66,3.16-1.46,6.38-3,9.76-3.87,3.4-.87,6.88-1.19,10.38-1.22,3.22-.03,6.61-.08,9.75.7.79.2,1.57.43,2.35.68-11.48-1.33-26.52.55-39.72,13.96-5.56,5.65-12.29,10.04-19.78,12.66-6.34,2.22-13.4,2.47-18.06,1.16,5.87-3.21,12-4.55,17.59-8.24Z"/>
  <path class="st7" d="M75.53,168.87c-.38-.04-.74-.13-1.07-.26-.95,1.12-1.52,1.84-1.52,1.84,0,0,1.23-.65,3.39-1.52-.26-.02-.53-.03-.79-.06Z"/>
  <path class="st7" d="M276.52,169.52s-.84-1.07-2.19-2.62c-.58.29-1.3.35-2.12.07-2.69-.92-5.48-1.47-8.31-1.8,7.62,1.68,12.62,4.35,12.62,4.35Z"/>
  <path d="M227.87,147.95c-.28-.28-.47-6.53-.74-7.84-4.12-20.56-27-32.16-33.65-5.64-1.88,7.51-1.44,13.26.08,20.73.16.79,1.53,3.73,1.52,4.32,0,.13-1.12,2.29-1.24,2.35-.25.12-3.87-2.35-4.86-2.74-9.38-3.73-24.13-4.21-32.82,1.52-6.1,4.02-7.67,10.28-1.17,14.96,3.64,2.62,4.55.21,8.41,1.63,3.3,1.22,3.47,3.22,5.85,5.17,3.26,2.67,5.17,2.46,8.82.46,3.3-1.8,4.69-5.49,8.64-5.77l-.64-.96c1.16.06,2.18,1.1,3.41.97,5.2-.59,8.14-6.22,6.86-11.07-.34-1.28-2.09-3.56-2.13-4.06-.11-1.3,1.61-1.23,1.46-3.21-.4-5.02-3.45-9.65-.79-15.1l1.23-1.52-.97,3.23c.4.01.92-2.31,1.62-1.29.13.19,0,3.96,0,4.7,0,2.27,5.14,4.64,7.21,3.95,2.07-.68.45-1.22,1.19-2.67.8-1.57,2.75-.46,3.35-2.52.3-1.02-.71-7.35,2.5-3.93,1.16,1.24.42,6.89-.75,8.13-1.33,1.4-9.43,4.32-11.88,5.77-.38.23-2.03.77-1.45,1.47,9.93-4.36,19.69-9.63,30.79-10.36l6.95.48c-.9-1.53-6.55-.88-6.8-1.13ZM185.92,165.74c-3.28-.03-6.55.52-9.75.35-4.16-.22-15.07-3.32-4.42-4.45,4.81-.51,14.2.12,18.53,2.33,7.02,3.58-2.92,1.78-4.36,1.77ZM212.32,150.86c3.15-12.54-13.35-18.61-19.11-6.8,1.42-11.34,9.51-29.28,23.15-18.12,6.38,5.22,8.7,14.12,9.57,22l-13.61,2.91Z"/>
  <path class="st0" d="M127.69,243s6.43,20.51,21.14,23.18c0,0-5.87-29.13-10.57-50.65-5.87-26.86-23.31-71.95-66.55-37.62,0,0,21.4-6.31,25.41,7.32,0,0-13.82-8.21-38.34,11.4,0,0,30.12,3.92,47.95,21.76,7.81,7.81,11.1,23.51,19.36,30.85h0s5.35-8.37-3.57-18.9"/>
  <path class="st0" d="M96.28,192.58c2.73.81,5.49,1.55,8.06,2.72,4.89,2.23,9.35,6.14,13.24,9.8,4.03,3.79,7.57,8.16,10.47,12.87,4.66,7.55,7.72,16.18,12.6,23.62.63-1.69,1.05-3.48,1.43-5.41.37-1.89.62-3.79.79-5.71-1.33-6.35-2.74-12.97-4.05-18.96-2.61-11.92-7.62-27.62-16.41-37.62-3.53-2.42-7.47-4.18-11.79-5.02-4.02-.78-8.11-1.39-12.22-1.5-.11,0-.23,0-.34,0,1.16.47,2.3.99,3.38,1.56,4.81,2.54,10.27,6.75,12.19,12.06,1.35,3.74-.64,7.18-4.09,8.78-3.82,1.78-8.16,2.17-12.28,2.69-.36.05-.68.09-.98.12Z"/>
  <path class="st0" d="M219.66,243.7s-6.43,20.51-21.14,23.18c0,0,5.87-29.13,10.57-50.65,5.87-26.86,23.31-71.95,66.55-37.62,0,0-21.4-6.31-25.41,7.32,0,0,13.82-8.21,38.34,11.4,0,0-30.12,3.92-47.95,21.76-7.81,7.81-11.1,23.51-19.36,30.85h0s-5.35-8.37,3.57-18.9"/>
  <path class="st0" d="M251.07,193.29c-2.73.81-5.49,1.55-8.06,2.72-4.89,2.23-9.35,6.14-13.24,9.8-4.03,3.79-7.57,8.16-10.47,12.87-4.66,7.55-7.72,16.18-12.6,23.62-.63-1.69-1.05-3.48-1.43-5.41-.37-1.89-.62-3.79-.79-5.71,1.33-6.35,2.74-12.97,4.05-18.96,2.61-11.92,7.62-27.62,16.41-37.62,3.53-2.42,7.47-4.18,11.79-5.02,4.02-.78,8.11-1.39,12.22-1.5.11,0,.23,0,.34,0-1.16.47-2.3.99-3.38,1.56-4.81,2.54-10.27,6.75-12.19,12.06-1.35,3.74.64,7.18,4.09,8.78,3.82,1.78,8.16,2.17,12.28,2.69.36.05.68.09.98.12Z"/>
  <path d="M204.87,242.48c-2.06,18.51-16.64,31.76-35.73,29.05-29.83-4.24-28.89-37.46-33.29-60.45,5.13,19.03,4.2,45.56,24.51,55.63,21.15,10.49,39.7-3.18,44.51-24.23Z"/>
  <path class="st4" d="M124.92,101.43c32.81-16.69,82.59-23.32,124.83,22.5l13.64,19.89s-15.74-9.76-24.93-.32c0,0-15.71-41.68-43.91-25.14-12.27,7.19-5.11,40.13-5.11,40.13,0,0-18.14-7.11-26.46-1.35-8.32,5.76,8.22-26.84-7.65-37.04-19.3-12.4-35.98-7.16-43.15,26.65,0,0-9.06,0-30.29,9.86h0c6.68-20.75,23.61-45.32,43.04-55.2Z"/>
</svg>